<?xml version="1.0" standalone="no"?>
<!DOCTYPE svg PUBLIC "-//W3C//DTD SVG 20010904//EN"
 "http://www.w3.org/TR/2001/REC-SVG-20010904/DTD/svg10.dtd">
<svg version="1.0" xmlns="http://www.w3.org/2000/svg"
 width="529.000000pt" height="529.000000pt" viewBox="0 0 529.000000 529.000000"
 preserveAspectRatio="xMidYMid meet">
<metadata>
Created by potrace 1.11, written by Peter Selinger 2001-2013
</metadata>
<g transform="translate(0.000000,529.000000) scale(0.100000,-0.100000)"
fill="#000000" stroke="none">
<path d="M2398 5285 c-1 -1 -32 -6 -67 -9 -35 -3 -73 -8 -85 -11 -11 -2 -39
-7 -60 -10 -21 -3 -48 -7 -60 -10 -12 -3 -34 -7 -51 -10 -16 -4 -34 -7 -40 -9
-5 -1 -26 -6 -45 -10 -19 -4 -66 -17 -105 -29 -38 -11 -74 -21 -80 -23 -41 -9
-223 -82 -323 -129 l-121 -58 -128 75 c-204 120 -249 141 -271 129 -29 -16
-18 -54 64 -221 l73 -150 -37 -27 c-178 -134 -357 -308 -496 -483 -68 -84
-190 -264 -239 -350 -115 -202 -238 -516 -273 -695 -2 -11 -8 -42 -14 -70 -18
-94 -21 -110 -28 -165 -9 -69 -9 -674 -1 -755 4 -33 14 -96 24 -140 9 -44 19
-89 21 -99 18 -93 130 -426 146 -437 6 -3 10 -10 10 -15 1 -35 141 -300 210
-398 137 -194 205 -276 363 -431 131 -129 130 -128 250 -221 261 -201 624
-377 930 -450 80 -19 202 -44 245 -50 30 -4 66 -9 80 -12 43 -7 621 -6 690 2
135 14 219 30 365 72 420 120 771 313 1051 577 190 180 330 335 412 456 20 31
40 58 45 59 4 2 7 10 7 18 0 8 4 14 8 14 4 0 13 12 20 28 6 15 20 41 31 57 31
47 126 241 164 335 50 123 114 328 130 420 3 14 12 59 20 100 16 78 22 121 35
230 7 71 7 470 -1 535 -3 22 -8 62 -11 89 -3 27 -10 74 -16 105 -6 31 -13 70
-16 86 -30 166 -155 537 -195 580 -5 5 -9 17 -9 26 0 10 -3 19 -7 21 -5 2 -26
37 -47 78 -53 101 -126 216 -210 330 -95 128 -103 136 -245 280 -68 69 -123
130 -122 137 1 7 31 74 67 150 37 76 79 167 95 203 16 36 33 72 37 80 13 25 8
54 -10 58 -15 3 -171 -98 -356 -230 -79 -58 -83 -59 -117 -48 -19 6 -37 16
-41 21 -3 6 -16 14 -27 19 -12 5 -44 23 -72 40 -189 113 -531 248 -730 286
-22 5 -42 9 -45 9 -9 2 -84 18 -104 21 -10 2 -44 6 -75 9 -31 4 -72 9 -91 12
-39 5 -516 13 -522 8z m417 -169 c173 -18 183 -20 295 -42 192 -39 412 -114
615 -209 112 -53 225 -117 225 -128 0 -11 -52 -62 -105 -103 -55 -42 -193
-134 -201 -134 -4 0 -39 24 -78 54 -39 30 -85 61 -102 69 -17 9 -51 32 -75 53
-24 20 -56 41 -71 46 -28 10 -37 31 -18 43 7 4 6 13 -1 26 -6 11 -8 33 -4 49
5 23 1 31 -23 49 -17 12 -37 21 -45 21 -9 0 -18 4 -21 9 -6 9 -152 7 -196 -3
-14 -4 -34 -8 -45 -10 -57 -11 -88 -20 -172 -49 l-92 -31 -23 22 c-49 45 -128
57 -229 32 -24 -6 -52 -13 -63 -15 -67 -16 -267 -114 -321 -158 -54 -43 -122
-87 -135 -87 -10 0 -101 56 -204 124 l-187 124 78 32 c43 17 92 37 108 45 87
38 315 106 440 130 64 12 213 34 270 41 33 3 61 7 62 8 5 5 260 -2 318 -8z
m-1467 -352 c70 -31 209 -89 310 -129 195 -79 332 -147 477 -239 50 -31 99
-62 110 -69 56 -34 135 -91 131 -94 -2 -3 -42 3 -88 12 -45 9 -96 18 -112 20
-15 2 -37 7 -49 11 -11 4 -35 8 -51 10 -17 1 -70 14 -117 28 -47 14 -98 27
-112 30 -64 11 -314 121 -427 186 -44 26 -91 83 -149 180 -63 107 -65 110 -57
110 3 0 63 -25 134 -56z m1712 48 c0 -5 -16 -17 -35 -28 -19 -10 -30 -21 -24
-24 5 -4 44 -5 87 -4 42 1 81 0 86 -3 4 -3 -18 -18 -50 -34 -33 -15 -72 -40
-87 -55 -22 -20 -31 -24 -40 -14 -9 9 -6 17 15 35 15 12 33 25 40 28 28 10 -4
19 -86 24 -64 4 -98 1 -138 -12 -70 -23 -198 -91 -220 -117 -10 -11 -18 -18
-18 -14 0 3 -9 -2 -20 -11 -34 -30 -22 -31 53 -6 174 57 247 30 279 -105 18
-72 35 -70 39 6 3 39 4 40 33 37 47 -6 60 11 35 46 l-20 28 26 7 c16 4 25 13
25 25 0 19 11 22 74 21 43 -1 55 -19 22 -32 -15 -5 -38 -10 -52 -10 -32 0 -30
-10 10 -40 41 -30 33 -47 -26 -56 -23 -4 -36 -10 -30 -16 16 -16 82 -18 117
-4 35 15 71 58 61 74 -3 6 1 15 9 22 17 14 57 -8 135 -71 25 -20 70 -50 101
-67 71 -40 99 -69 79 -82 -8 -5 -22 -14 -30 -20 -8 -5 -46 -31 -85 -58 -87
-60 -139 -96 -145 -102 -3 -3 -34 -27 -70 -55 -36 -27 -67 -52 -70 -55 -3 -3
-18 -15 -35 -26 -26 -18 -45 -21 -135 -20 -88 1 -111 5 -140 22 -19 12 -60 35
-90 51 -111 62 -147 82 -230 132 -46 29 -94 61 -105 71 -12 11 -25 20 -30 20
-5 0 -16 6 -24 14 -9 7 -43 28 -76 46 -33 18 -63 38 -67 44 -4 6 -8 8 -8 4 0
-8 -146 87 -155 101 -5 9 64 61 80 61 3 0 24 9 48 19 48 22 154 61 177 66 8 2
35 8 60 15 25 7 54 13 65 15 11 1 39 5 63 9 42 8 43 8 38 -19 -8 -42 16 -41
127 5 125 52 230 89 277 96 19 3 42 10 50 15 19 11 30 11 30 1z m-1865 -170
c6 -4 15 -16 22 -27 13 -22 89 -142 113 -180 39 -60 80 -134 80 -143 0 -6 -23
-30 -51 -54 -163 -136 -198 -196 -194 -329 2 -61 7 -83 25 -110 54 -78 137
-135 211 -145 24 -3 47 -9 51 -13 5 -4 -17 -61 -47 -126 -58 -126 -112 -283
-118 -348 -4 -34 -2 -38 14 -34 11 3 17 1 13 -4 -3 -5 -7 -17 -9 -26 -3 -10
-19 -61 -37 -114 -18 -54 -34 -102 -35 -108 -10 -45 -15 -106 -19 -235 -2 -82
-5 -150 -7 -151 -142 -71 -177 -91 -177 -97 0 -4 -4 -8 -9 -8 -10 0 -141 -79
-151 -90 -9 -10 -183 -97 -240 -120 -66 -27 -219 -81 -240 -85 -8 -2 -35 -10
-60 -19 -90 -32 -110 -22 -124 65 -3 19 -8 43 -10 55 -9 44 -19 137 -32 284
-16 194 -1 448 38 620 5 25 12 56 14 70 31 159 161 511 235 635 10 16 30 52
44 79 14 26 34 60 45 73 11 14 20 30 20 35 0 5 4 14 10 21 5 7 47 62 92 122
44 61 93 123 107 139 82 91 230 231 329 312 13 10 36 29 50 41 30 25 32 26 47
15z m3100 -47 c-34 -81 -54 -102 -113 -123 -63 -23 -186 -62 -205 -66 -7 -2
-19 -6 -27 -9 -26 -10 -170 -49 -270 -72 -52 -12 -104 -26 -114 -30 -35 -15
-8 12 77 79 140 109 189 132 417 200 47 14 96 28 110 30 14 2 25 5 25 6 0 1
11 4 24 6 14 2 26 6 28 8 2 1 16 3 32 4 l29 1 -13 -34z m96 -206 c134 -148
130 -143 189 -219 19 -25 37 -47 41 -50 11 -11 139 -208 146 -226 3 -11 10
-21 13 -24 19 -14 174 -358 185 -410 2 -8 11 -35 20 -60 15 -44 59 -202 69
-250 2 -14 10 -50 16 -80 31 -147 38 -244 35 -465 -2 -115 -6 -221 -9 -235 -2
-14 -7 -47 -11 -75 -12 -97 -22 -107 -135 -143 -107 -34 -402 -30 -527 7 -52
15 -207 83 -224 97 -8 8 -19 14 -24 14 -12 0 -199 126 -214 144 -14 17 -19 40
-24 122 -4 56 -3 60 17 60 20 -1 21 2 18 127 -3 110 -1 131 13 141 11 7 16 25
15 51 0 37 -6 90 -10 90 -1 0 -3 10 -6 22 -2 12 -15 54 -28 95 -14 40 -40 125
-59 188 -20 63 -44 138 -56 167 -20 50 -20 54 -3 82 13 23 28 33 66 42 53 13
108 55 133 102 12 24 14 52 11 129 l-5 99 130 262 c72 144 130 265 129 270 -5
22 22 -1 89 -74z m-2897 -216 c5 -17 0 -28 -25 -50 -70 -61 -122 -118 -135
-150 -19 -43 -18 -117 2 -155 l16 -30 -31 18 c-17 10 -31 24 -31 31 0 7 -4 13
-9 13 -11 0 -23 49 -26 105 -2 39 1 44 109 147 61 59 114 104 117 100 4 -4 10
-17 13 -29z m1554 -330 c17 -15 222 -336 222 -348 0 -2 13 -26 29 -53 16 -27
26 -53 22 -59 -8 -13 -105 -53 -166 -69 -77 -21 -128 -17 -214 16 -42 17 -97
33 -122 36 -65 8 -71 11 -60 31 4 10 23 56 41 103 42 109 146 324 166 344 20
21 57 20 82 -1z m-1237 -175 c41 -62 82 -129 93 -148 18 -35 92 -151 125 -200
10 -14 59 -86 110 -161 90 -135 126 -169 175 -169 28 0 97 39 174 99 135 103
187 140 198 140 5 1 44 -32 86 -72 76 -73 99 -84 217 -103 8 -2 28 -16 44 -32
27 -28 29 -35 29 -101 0 -106 -8 -130 -48 -147 -65 -27 -163 -10 -287 52 -88
43 -119 70 -145 121 -29 57 -48 70 -62 44 -33 -62 134 -193 320 -252 l67 -21
-7 -33 c-11 -49 -4 -119 14 -148 22 -32 90 -52 148 -41 23 4 59 6 78 5 62 -4
82 41 84 191 1 38 5 68 10 68 14 0 162 153 179 186 17 34 13 74 -9 74 -7 0
-18 -18 -24 -40 -6 -21 -17 -46 -25 -54 -8 -8 -15 -17 -15 -20 0 -9 -77 -78
-110 -99 -15 -10 -45 -19 -66 -20 l-39 -2 -1 114 0 114 50 40 c28 22 70 48 93
59 23 10 46 25 50 33 7 12 14 9 39 -14 29 -27 94 -72 142 -98 17 -9 29 -10 43
-3 20 11 79 106 79 127 0 7 10 23 23 37 12 13 33 46 46 73 45 92 81 136 81 98
0 -8 5 -15 10 -15 6 0 10 -12 10 -27 0 -32 32 -139 55 -182 8 -17 15 -39 15
-50 0 -18 -3 -19 -25 -9 -14 6 -28 9 -31 5 -3 -3 9 -36 26 -74 45 -97 53 -116
55 -133 1 -8 6 -35 10 -60 l7 -45 -53 53 c-61 60 -71 53 -38 -29 21 -54 37
-179 22 -179 -4 1 -23 21 -41 46 -35 48 -62 52 -38 6 15 -29 44 -124 52 -169
3 -15 9 -43 14 -60 4 -18 6 -33 4 -33 -12 0 -50 25 -65 42 -16 18 -35 26 -25
10 6 -10 18 -124 18 -171 0 -24 -7 -40 -24 -52 -32 -25 -38 -24 -44 11 -4 17
-9 30 -12 30 -10 0 -31 -35 -32 -52 0 -10 -11 -43 -25 -74 l-25 -56 -27 20
c-28 19 -115 55 -130 53 -4 0 -8 -13 -10 -28 -6 -55 -25 -123 -34 -123 -5 0
-31 12 -58 27 -27 16 -52 25 -55 22 -5 -4 -11 -71 -15 -148 -1 -17 -6 -22 -19
-19 -15 4 -19 -1 -20 -26 -3 -100 -32 -165 -110 -248 l-59 -64 3 -119 c1 -66
6 -172 9 -235 4 -63 7 -124 7 -134 -1 -31 26 -150 44 -195 9 -23 23 -41 31
-41 25 0 -3 -27 -60 -60 -68 -39 -79 -32 -75 45 1 38 -2 68 -10 77 -6 8 -10
17 -8 19 9 9 15 64 10 86 -6 23 -44 34 -44 13 0 -5 -4 -10 -8 -10 -5 0 -1 32
9 72 22 86 11 122 -16 57 -10 -24 -20 -48 -21 -54 -2 -5 -15 -44 -29 -85 -26
-77 -32 -144 -15 -155 6 -3 10 -17 10 -29 0 -13 7 -39 15 -58 12 -30 12 -38 0
-54 -12 -17 -29 -19 -163 -21 -82 -1 -169 3 -193 9 -24 5 -53 12 -65 14 -81
15 -260 90 -283 118 -8 9 0 31 31 82 83 141 134 268 155 389 3 17 6 96 7 177
1 100 5 151 13 159 9 9 2 18 -32 40 -44 28 -130 109 -170 159 -39 50 -127 197
-167 278 -22 45 -43 84 -47 86 -4 3 -6 -37 -6 -87 1 -51 -1 -98 -3 -104 -3 -8
-16 -4 -40 15 -52 38 -69 56 -145 154 -37 48 -75 93 -85 100 -9 7 -18 20 -19
28 -1 8 -5 25 -8 36 -5 16 1 29 22 48 34 32 42 32 71 2 42 -45 153 -66 174
-33 9 13 -31 52 -79 78 -36 20 -62 73 -69 139 -10 99 -17 102 -55 25 -47 -96
-59 -96 -54 3 2 43 9 98 14 123 17 71 14 98 -8 92 -11 -3 -22 -12 -24 -21 -3
-10 -13 -28 -21 -42 -26 -42 -55 -113 -61 -150 -12 -69 -34 -64 -55 13 -6 20
-15 37 -20 37 -9 0 -26 -45 -34 -90 -7 -38 -17 -60 -26 -55 -10 6 -23 139 -24
253 0 50 -4 92 -8 92 -10 0 -38 -55 -38 -73 0 -8 -7 -20 -15 -27 -17 -14 -19
-6 -15 60 5 105 128 335 216 407 22 17 50 40 64 51 l25 20 -62 -16 c-34 -10
-65 -21 -69 -25 -4 -4 -13 -7 -20 -7 -15 0 -8 24 26 95 32 66 66 155 98 255
41 126 70 190 86 190 8 0 47 -51 87 -112z m1267 -1032 l1 -114 -47 3 c-26 1
-55 3 -64 4 -29 2 -51 47 -50 104 0 86 1 87 25 88 12 0 45 9 72 18 28 10 53
17 56 15 3 -2 6 -55 7 -118z m118 112 c6 -4 9 -32 8 -65 -1 -32 -2 -72 -3 -89
-1 -16 -7 -38 -13 -47 -17 -22 -54 -29 -67 -13 -9 11 -23 211 -15 219 6 5 79
1 90 -5z m-1918 -220 c9 -21 8 -27 -3 -32 -19 -7 -38 29 -30 55 8 23 15 18 33
-23z m3760 -470 c-26 -120 -115 -359 -193 -525 l-55 -116 -29 44 c-17 24 -73
86 -125 138 l-96 94 118 79 c178 122 333 253 361 306 19 36 30 25 19 -20z
m-4613 -464 c17 -14 61 -44 98 -67 38 -22 71 -46 74 -53 5 -13 3 -16 -45 -73
l-29 -34 -25 34 c-23 30 -91 155 -110 201 -10 25 2 22 37 -8z m3063 -354 c12
-12 23 -27 23 -35 1 -8 2 -21 3 -27 3 -22 -14 -65 -33 -82 -16 -15 -21 -15
-47 -1 -16 8 -43 15 -61 15 -29 0 -31 2 -29 33 2 17 4 42 5 54 2 34 39 63 81
63 23 0 44 -8 58 -20z m-1481 -32 c16 -18 21 -34 19 -70 -2 -58 -15 -73 -60
-70 -26 2 -41 -4 -64 -28 l-31 -30 -30 37 c-26 32 -30 43 -25 73 16 86 140
143 191 88z m1402 -170 c-5 -18 -22 -54 -39 -81 -16 -27 -30 -52 -30 -57 0 -5
-3 -10 -8 -12 -4 -1 -24 -26 -45 -55 -89 -122 -265 -247 -405 -288 -86 -25
-184 -32 -282 -21 -98 11 -120 16 -140 26 -11 6 -20 8 -20 5 0 -4 -6 -3 -12 2
-7 4 -19 8 -25 9 -29 5 -113 41 -168 73 -100 58 -210 184 -279 319 -25 49 -3
38 42 -20 22 -29 48 -62 58 -73 29 -31 100 -85 113 -85 6 0 11 -4 11 -8 0 -4
15 -14 33 -21 81 -33 133 -52 147 -56 8 -2 46 -10 83 -19 95 -22 156 -29 277
-29 149 -1 184 7 319 70 52 24 109 54 127 68 38 29 134 145 189 228 43 65 69
77 54 25z m954 -116 c15 -6 27 -16 27 -21 0 -26 -218 -212 -368 -314 l-84 -57
-28 17 c-34 20 -50 12 -25 -13 16 -16 16 -18 -4 -33 -19 -15 -98 -56 -180 -95
-19 -9 -40 -16 -48 -16 -7 0 -13 -4 -13 -10 0 -5 -6 -10 -13 -10 -10 0 -100
-34 -182 -70 -19 -8 -167 -53 -172 -52 -2 1 -17 -4 -35 -9 -43 -13 -166 -40
-198 -44 -14 -2 -38 -6 -55 -9 -30 -5 -107 -15 -180 -21 -62 -6 -283 -6 -350
0 -133 11 -256 33 -390 67 -44 11 -87 21 -95 23 -22 5 -155 50 -220 75 -30 11
-68 26 -85 32 -53 20 -308 153 -370 193 -68 45 -273 193 -293 212 -11 11 -10
13 5 14 10 1 34 3 53 5 19 2 109 6 200 9 188 5 220 0 376 -63 139 -56 206 -67
289 -49 22 5 47 10 56 12 8 2 38 -18 65 -44 27 -25 67 -57 89 -71 22 -13 42
-27 45 -30 14 -17 198 -93 255 -105 167 -35 229 -38 310 -16 22 5 72 15 110
21 39 6 80 13 93 15 33 6 169 76 189 97 9 10 20 18 25 18 5 0 21 12 36 28 55
56 115 92 151 92 95 0 278 45 609 149 122 39 244 73 270 77 26 3 48 7 49 8 6
6 61 -2 86 -12z"/>
<path d="M2971 3813 c-31 -38 -37 -52 -23 -54 38 -5 123 -5 131 0 12 8 -31 66
-59 81 -15 8 -24 3 -49 -27z"/>
<path d="M2636 3117 c-11 -8 -15 -17 -10 -20 14 -8 37 8 33 22 -3 8 -10 8 -23
-2z"/>
<path d="M2626 3044 c-9 -8 -16 -20 -16 -26 0 -13 42 14 48 30 5 17 -14 15
-32 -4z"/>
<path d="M2651 2996 c-8 -10 -9 -16 -1 -21 5 -3 13 1 16 10 9 22 -1 29 -15 11z"/>
<path d="M2467 2613 c-10 -15 -12 -81 -4 -90 13 -13 18 5 15 53 -2 28 -6 44
-11 37z"/>
<path d="M3420 2603 c0 -18 36 -84 42 -77 9 8 -11 60 -28 75 -8 6 -14 7 -14 2z"/>
<path d="M2498 2555 c-8 -8 13 -105 23 -100 4 3 4 18 -1 34 -4 16 -6 32 -3 34
3 3 1 13 -4 22 -5 8 -12 13 -15 10z"/>
<path d="M3421 2508 c-1 -20 4 -40 9 -43 12 -7 12 32 0 60 -7 16 -9 13 -9 -17z"/>
<path d="M3389 2463 c0 -10 -2 -26 -4 -35 -2 -10 1 -18 6 -18 5 0 9 3 10 8 0
4 3 19 5 35 3 15 0 27 -6 27 -5 0 -10 -8 -11 -17z"/>
<path d="M2611 2428 c-1 -15 4 -30 10 -33 17 -11 18 -2 4 30 l-13 30 -1 -27z"/>
<path d="M3337 2393 c-10 -18 -13 -33 -8 -33 15 0 33 28 29 47 -3 14 -8 11
-21 -14z"/>
<path d="M2680 2377 c0 -8 7 -17 15 -21 8 -3 15 -2 15 3 0 5 -7 14 -15 21 -12
10 -15 10 -15 -3z"/>
<path d="M2730 2334 c0 -11 186 -89 238 -99 9 -2 17 -4 17 -6 0 -1 10 -3 23
-4 37 -4 16 8 -66 36 -42 15 -107 39 -144 53 -38 14 -68 23 -68 20z"/>
<path d="M3200 2281 c-14 -10 -36 -21 -50 -24 -30 -8 -56 -24 -50 -31 8 -7
112 32 128 48 22 21 0 26 -28 7z"/>
<path d="M3073 2169 c-3 -11 -14 -20 -24 -20 -27 -2 -32 -3 -55 -16 -12 -7
-36 -15 -55 -18 -44 -7 -102 -25 -112 -35 -4 -4 12 -10 36 -13 57 -8 144 -47
180 -80 18 -18 29 -23 32 -14 11 31 13 82 5 103 -11 28 -12 28 33 9 49 -20 57
-19 57 8 0 59 -85 125 -97 76z"/>
</g>
</svg>
