<?xml version="1.0" encoding="UTF-8" ?>
<!DOCTYPE svg PUBLIC "-//W3C//DTD SVG 1.1//EN" "http://www.w3.org/Graphics/SVG/1.1/DTD/svg11.dtd">
<svg width="428pt" height="430pt" viewBox="0 0 428 430" version="1.1" xmlns="http://www.w3.org/2000/svg">
<g id="#0c3744ff">
<path fill="#0c3744" opacity="1.00" d=" M 185.07 4.84 C 215.72 1.74 247.24 2.84 276.79 12.20 C 296.90 18.23 315.71 27.88 333.25 39.32 C 329.34 42.49 325.33 45.53 321.20 48.41 C 317.18 45.99 313.02 43.83 308.90 41.61 C 284.43 27.28 256.43 19.53 228.32 16.74 C 192.73 13.80 156.74 21.92 124.74 37.45 C 119.87 34.80 115.23 31.77 110.93 28.28 C 134.16 16.57 159.06 7.53 185.07 4.84 Z" />
<path fill="#0c3744" opacity="1.00" d=" M 90.40 40.87 C 93.62 44.80 96.42 49.06 98.54 53.68 C 50.39 86.00 20.50 142.09 15.14 199.32 C 12.57 221.09 15.89 243.00 20.57 264.25 C 17.08 264.82 13.52 264.78 10.00 264.55 C 14.01 277.79 24.67 286.82 32.72 297.45 C 35.92 304.98 39.77 312.20 44.05 319.17 C 45.23 321.13 46.42 323.08 47.65 325.00 C 50.10 328.78 52.74 332.44 55.44 336.05 C 56.71 337.74 57.99 339.43 59.30 341.10 C 61.35 343.69 63.51 346.20 65.71 348.67 C 70.67 354.30 75.98 359.60 81.67 364.48 C 88.24 370.25 95.15 375.60 102.55 380.26 C 144.43 408.64 197.64 421.19 247.57 411.53 C 264.41 408.33 280.96 403.28 296.43 395.86 C 300.09 394.13 303.79 392.47 307.32 390.49 C 312.63 387.26 317.82 383.83 323.25 380.78 C 334.61 373.70 345.01 365.07 354.49 355.63 C 357.52 352.51 360.42 349.27 363.25 345.97 C 365.27 343.60 367.24 341.17 369.14 338.70 C 369.48 338.25 370.17 337.35 370.51 336.90 C 372.19 334.66 373.80 332.38 375.40 330.08 C 376.70 328.20 377.98 326.30 379.23 324.39 C 379.94 323.29 380.65 322.19 381.36 321.08 C 382.95 318.52 384.49 315.91 385.99 313.29 C 396.42 294.80 404.08 274.65 408.09 253.78 L 408.29 252.94 C 420.78 195.09 402.77 132.82 365.44 87.56 C 359.72 80.80 353.93 74.00 346.91 68.54 C 348.38 63.59 350.33 58.79 353.45 54.64 C 356.79 58.26 360.25 61.79 363.77 65.23 C 403.32 104.13 426.40 159.43 425.02 215.00 C 425.93 252.67 416.10 290.51 396.95 322.95 C 364.64 378.04 306.80 418.38 242.97 425.95 C 230.05 427.38 217.04 428.03 204.04 427.54 C 151.46 426.40 99.66 403.72 63.25 365.76 C 32.28 335.95 11.70 295.85 4.37 253.59 C 0.39 228.68 0.47 203.20 4.21 178.26 C 11.42 135.69 32.07 95.23 63.25 65.25 C 71.30 56.02 81.48 49.15 90.40 40.87 Z" />
</g>
<g id="#320505ff">
<path fill="#320505" opacity="1.00" d=" M 79.88 10.83 C 88.53 14.47 97.08 19.20 104.50 24.75 C 105.46 27.26 106.21 29.84 107.24 32.33 C 98.99 27.12 91.17 21.25 82.90 16.08 C 88.09 25.17 93.73 34.00 99.44 42.77 C 103.50 49.25 107.28 55.91 111.66 62.18 C 117.10 71.62 122.76 80.94 128.82 90.00 C 135.73 101.98 143.16 113.65 150.73 125.21 C 162.45 144.75 174.51 164.11 186.90 183.24 C 196.70 177.02 206.25 170.41 215.90 163.95 C 221.37 160.56 220.42 153.27 222.82 148.01 C 227.02 138.26 231.53 128.63 236.16 119.08 C 238.45 113.64 246.81 113.09 249.80 118.18 C 256.87 128.91 263.04 140.23 269.76 151.18 C 272.81 157.95 273.61 165.60 272.43 172.91 C 272.35 173.49 272.19 174.67 272.11 175.25 C 271.08 174.53 270.03 173.82 268.98 173.12 C 263.43 176.80 256.76 179.32 252.89 185.04 C 251.72 191.45 252.97 198.02 252.49 204.49 C 261.07 204.69 268.68 198.78 272.04 191.15 C 273.15 188.86 273.92 186.20 276.13 184.69 C 278.17 190.84 272.37 195.62 268.81 199.81 C 264.65 204.82 258.20 207.18 251.76 206.43 L 250.87 206.40 C 250.59 212.42 250.83 218.44 251.00 224.46 C 252.95 224.65 254.92 224.72 256.85 225.14 C 260.32 219.76 258.56 212.99 258.93 206.97 L 259.93 207.10 C 260.57 212.54 261.03 218.21 259.50 223.54 C 258.77 227.05 254.52 226.15 251.88 226.61 C 246.73 226.61 240.47 228.66 236.24 224.73 C 233.08 220.24 234.68 214.46 235.68 209.53 C 235.86 211.10 236.01 212.67 236.13 214.25 C 236.24 217.81 235.08 223.25 239.68 224.43 C 242.49 225.12 247.02 226.66 248.86 223.69 C 250.06 217.91 249.12 211.94 249.12 206.09 C 245.23 207.37 241.29 208.61 237.20 209.08 C 225.64 207.40 214.41 202.24 206.08 193.98 C 203.81 192.04 204.05 188.86 203.46 186.20 C 204.30 186.20 205.96 186.20 206.80 186.20 C 208.39 190.49 210.06 195.25 214.22 197.74 C 224.02 203.68 236.35 209.60 247.63 203.92 C 247.63 198.53 247.99 193.16 248.21 187.78 C 247.41 181.29 240.58 180.29 235.35 179.37 C 227.81 178.04 222.33 171.90 219.25 165.23 C 208.03 172.23 197.49 180.29 186.08 187.01 C 170.74 164.34 158.19 139.74 140.67 118.59 C 139.94 118.93 139.21 119.26 138.48 119.59 C 137.33 117.79 136.29 115.93 135.39 114.01 C 127.65 113.22 119.81 113.95 112.39 116.28 C 115.48 125.10 125.04 118.28 129.88 114.85 C 129.71 116.67 129.54 118.49 129.37 120.31 C 128.44 120.74 127.50 121.16 126.57 121.57 C 121.22 125.15 114.81 124.67 109.04 122.41 L 109.12 121.57 C 109.74 117.63 109.07 112.41 113.12 110.11 C 118.64 106.82 125.02 104.95 129.63 100.23 C 126.99 96.19 124.62 91.96 121.73 88.08 C 120.10 86.04 118.34 84.13 116.60 82.18 C 114.23 79.57 112.11 76.73 110.37 73.65 C 106.82 66.76 101.96 60.64 98.54 53.68 C 96.42 49.06 93.62 44.80 90.40 40.87 C 86.52 35.69 83.99 29.68 80.95 24.00 C 79.04 19.93 76.12 14.78 79.88 10.83 M 235.79 125.27 C 235.70 126.08 235.61 126.89 235.52 127.71 C 229.71 135.87 226.87 145.66 223.12 154.85 C 222.84 155.42 222.27 156.56 221.98 157.13 C 231.47 155.05 238.69 163.56 248.00 162.89 C 255.51 163.14 262.61 160.06 268.82 156.10 C 268.72 155.66 268.53 154.79 268.43 154.35 C 262.85 143.88 256.42 133.89 250.36 123.70 C 248.54 121.16 246.75 117.25 243.02 117.66 C 238.82 117.61 237.54 122.32 235.79 125.27 Z" />
</g>
<g id="#491111ff">
<path fill="#491111" opacity="1.00" d=" M 356.07 23.06 C 360.50 20.48 363.95 16.21 368.95 14.66 C 372.66 15.86 370.65 20.02 369.57 22.50 C 364.16 33.19 359.37 44.23 353.45 54.64 C 350.33 58.79 348.38 63.59 346.91 68.54 C 342.15 79.02 336.70 89.19 331.91 99.67 C 329.29 105.48 324.51 111.32 326.69 118.07 C 327.54 125.15 326.17 134.61 318.38 137.20 C 314.73 138.90 308.00 139.40 308.51 144.83 C 313.00 158.86 317.66 172.88 321.99 186.98 C 324.41 193.11 319.50 198.71 320.09 204.82 C 320.45 209.84 320.90 214.86 320.89 219.89 C 319.50 219.33 318.11 218.78 316.71 218.24 C 317.54 224.08 315.95 231.64 321.39 235.64 C 331.88 244.04 343.70 251.06 356.79 254.47 C 364.09 257.33 371.95 257.78 379.71 257.49 C 389.56 258.47 398.81 254.86 408.29 252.94 L 408.09 253.78 C 398.93 271.07 380.84 280.09 365.70 291.21 C 372.04 298.97 380.35 304.90 385.99 313.29 C 384.49 315.91 382.95 318.52 381.36 321.08 C 376.82 310.56 367.15 303.77 361.62 293.92 C 351.05 297.76 340.83 303.11 329.51 304.34 C 323.59 304.99 317.31 303.13 311.68 305.70 C 301.83 310.49 291.61 318.52 291.44 330.52 C 304.66 330.94 313.24 319.18 324.49 314.24 C 321.07 317.91 317.55 321.48 313.94 324.96 C 304.82 334.56 294.08 347.75 279.06 343.35 C 278.43 347.67 277.89 352.01 277.47 356.36 C 281.66 357.16 286.08 357.80 290.15 356.06 C 303.59 351.05 316.26 344.12 328.22 336.24 C 341.85 327.11 359.93 325.07 375.40 330.08 C 373.80 332.38 372.19 334.66 370.51 336.90 C 362.47 331.39 352.18 335.45 343.73 337.91 C 345.86 337.97 347.98 338.03 350.11 337.96 C 347.82 338.22 345.52 338.38 343.23 338.62 C 334.52 339.38 327.40 344.90 319.96 348.93 C 310.28 354.70 300.15 359.85 289.38 363.28 C 284.30 364.96 278.91 363.97 273.91 362.52 C 271.52 365.30 269.15 368.11 266.59 370.75 C 259.12 377.92 251.26 384.97 241.75 389.34 C 231.82 389.97 221.80 390.94 212.39 394.37 C 194.31 391.36 175.13 385.77 162.98 371.09 C 160.61 367.92 158.65 364.49 156.65 361.08 C 143.03 366.81 129.50 359.12 118.41 351.65 C 102.17 344.63 82.29 340.40 65.71 348.67 C 63.51 346.20 61.35 343.69 59.30 341.10 C 71.22 337.41 83.22 332.10 96.01 333.77 C 106.17 334.18 115.62 338.76 122.81 345.83 C 131.35 353.49 142.85 357.31 154.27 356.86 C 154.86 352.33 152.81 348.69 148.81 346.65 C 143.35 342.32 135.66 345.00 130.09 340.99 C 121.76 335.61 113.26 330.42 103.97 326.84 C 104.33 326.40 105.04 325.53 105.39 325.10 C 109.07 325.25 112.75 325.34 116.42 325.61 C 124.84 327.46 134.73 327.29 140.55 319.92 C 114.28 306.47 84.37 313.91 56.27 310.97 C 53.18 315.50 50.22 320.14 47.65 325.00 C 46.42 323.08 45.23 321.13 44.05 319.17 C 46.96 315.73 49.53 312.04 51.97 308.26 C 45.12 305.39 39.76 299.89 32.72 297.45 C 24.67 286.82 14.01 277.79 10.00 264.55 C 13.52 264.78 17.08 264.82 20.57 264.25 C 26.38 262.56 32.05 260.42 37.83 258.63 C 45.66 255.88 53.58 253.29 61.00 249.53 C 76.52 243.23 88.18 227.88 105.82 227.42 C 105.28 224.85 104.73 222.27 104.20 219.70 C 102.84 222.17 101.36 224.57 99.87 226.97 C 99.40 214.84 99.55 202.47 102.76 190.68 C 105.22 183.36 108.74 176.44 110.96 169.02 C 109.23 171.42 107.51 173.83 105.73 176.21 C 106.62 161.17 113.75 147.56 120.78 134.57 C 109.85 135.48 99.80 128.59 95.55 118.72 C 94.99 112.59 95.12 105.91 98.59 100.57 C 103.12 93.03 112.15 89.81 116.60 82.18 C 118.34 84.13 120.10 86.04 121.73 88.08 C 120.94 88.98 120.16 89.88 119.36 90.76 C 115.06 96.00 108.87 99.31 104.78 104.72 C 100.58 110.89 102.60 119.56 108.61 123.77 C 115.60 127.28 123.63 126.99 131.12 125.66 C 126.37 135.75 121.16 145.85 120.07 157.14 C 123.65 152.29 126.96 147.23 130.91 142.66 C 130.16 155.65 119.15 164.15 114.86 175.78 C 118.32 173.40 121.97 171.31 125.65 169.28 C 126.05 169.64 126.85 170.37 127.25 170.73 C 126.96 170.97 126.38 171.45 126.09 171.70 C 114.06 180.39 108.85 194.99 105.03 208.72 C 106.68 207.35 108.34 205.99 110.00 204.63 C 109.77 210.54 109.92 216.50 111.42 222.26 C 112.49 216.19 112.54 209.90 115.25 204.26 C 116.03 214.79 116.27 225.76 121.68 235.19 C 122.42 230.04 123.07 224.89 123.71 219.73 C 130.83 232.48 136.23 246.85 148.03 256.20 C 149.22 257.57 150.40 258.93 151.64 260.26 C 154.02 262.90 156.37 265.56 158.73 268.23 C 152.58 265.59 146.88 262.06 140.92 259.06 C 149.79 268.77 161.75 274.82 172.51 282.14 C 170.72 277.87 169.52 273.39 168.79 268.82 C 170.19 269.92 171.60 271.01 172.93 272.20 C 176.73 281.24 184.22 288.00 192.39 293.09 C 188.96 293.52 185.52 293.88 182.08 294.20 C 190.91 315.00 183.77 339.07 168.84 355.08 C 171.75 356.87 174.64 358.70 177.52 360.54 C 186.85 367.57 198.36 370.74 209.79 372.28 C 216.87 373.14 224.14 373.88 231.20 372.36 C 233.16 371.64 235.11 370.87 237.08 370.16 C 236.20 368.50 235.30 366.85 234.50 365.15 C 233.31 360.99 232.11 356.70 232.37 352.33 C 233.25 346.84 236.33 342.02 237.69 336.66 C 238.72 336.45 239.76 336.25 240.80 336.05 C 240.21 338.03 239.63 340.02 239.00 342.00 C 238.63 342.97 238.29 343.94 237.96 344.93 C 237.14 347.55 236.48 350.22 235.71 352.86 C 237.62 350.05 240.21 347.87 242.71 345.62 C 242.88 347.05 243.02 348.49 243.14 349.94 C 242.84 351.22 242.41 352.47 242.02 353.73 C 240.08 358.62 242.24 363.84 241.67 368.89 C 242.70 368.38 243.73 367.88 244.77 367.39 C 247.98 365.88 251.16 364.23 253.98 362.04 C 257.03 359.43 259.53 356.27 262.02 353.14 C 247.23 337.37 251.32 313.68 258.16 295.26 C 255.43 296.45 252.67 297.56 249.84 298.48 C 256.63 293.58 260.90 285.29 260.49 276.87 C 261.73 277.81 262.96 278.75 264.20 279.70 C 264.85 274.06 265.55 268.43 265.94 262.77 C 268.87 264.06 271.79 265.37 274.69 266.74 C 274.78 266.21 274.97 265.17 275.07 264.65 C 275.40 262.82 275.77 261.01 276.14 259.19 C 276.43 258.09 276.74 257.00 277.06 255.91 C 281.24 257.29 285.24 259.26 289.58 260.11 C 293.31 258.27 292.80 253.23 293.96 249.80 C 294.33 248.34 294.71 246.88 295.06 245.41 C 295.44 248.87 296.02 252.30 296.52 255.75 C 299.58 252.13 303.53 249.25 306.08 245.21 C 307.08 241.19 306.16 236.99 306.10 232.90 L 306.63 233.49 C 308.53 235.94 310.24 238.53 312.03 241.06 C 311.63 233.33 309.48 225.83 305.87 219.00 C 304.55 215.89 303.36 212.72 302.35 209.50 C 305.51 212.72 308.30 216.27 310.79 220.03 C 311.25 213.40 310.15 206.80 306.98 200.93 C 310.10 202.48 313.17 204.12 316.23 205.80 C 315.48 197.62 314.29 188.89 307.99 182.94 C 307.37 181.91 306.75 180.89 306.13 179.86 C 308.11 180.18 310.09 180.50 312.08 180.82 C 313.34 182.29 314.71 183.64 316.07 185.01 C 314.75 172.02 305.04 161.97 303.73 148.95 C 298.13 159.08 293.05 169.49 287.74 179.77 C 286.73 181.12 286.09 183.44 284.10 183.50 C 279.51 181.74 276.20 177.86 272.11 175.25 C 272.19 174.67 272.35 173.49 272.43 172.91 C 276.42 175.21 280.32 177.66 284.13 180.27 C 289.92 170.17 295.02 159.69 300.26 149.30 C 307.92 134.91 315.27 120.36 322.79 105.90 C 329.56 92.91 336.15 79.83 342.87 66.81 C 344.42 63.80 345.96 60.78 347.51 57.76 C 353.41 46.24 359.42 34.77 364.83 23.00 C 345.55 37.20 326.27 51.41 307.34 66.08 C 304.53 65.73 301.72 65.39 298.90 65.08 C 305.90 59.84 312.84 54.52 319.87 49.33 C 320.20 49.10 320.87 48.64 321.20 48.41 C 325.33 45.53 329.34 42.49 333.25 39.32 C 340.43 33.33 348.07 27.91 356.07 23.06 M 314.85 129.33 C 320.28 127.62 322.16 122.10 321.95 116.88 C 318.74 120.48 316.28 124.71 314.85 129.33 M 94.66 236.71 C 88.44 242.70 80.80 246.76 73.89 251.84 C 59.22 260.19 43.15 265.57 27.07 270.50 C 24.42 271.14 21.76 271.75 19.10 272.34 C 23.16 278.02 27.69 283.43 33.08 287.90 C 39.56 293.30 47.82 295.71 54.92 300.10 C 62.93 305.31 72.88 304.46 81.99 304.99 C 97.40 305.69 112.82 305.98 128.25 306.21 C 139.43 307.17 151.79 304.02 161.97 310.03 C 165.39 314.11 164.03 320.03 163.35 324.87 C 165.19 326.36 167.02 327.87 168.87 329.35 C 169.44 335.95 168.13 342.58 163.35 347.47 C 163.98 348.65 164.61 349.83 165.25 351.01 C 178.19 336.08 184.46 311.57 172.76 294.26 C 161.40 283.41 146.39 277.34 133.48 268.55 C 123.80 260.13 113.64 251.35 108.98 238.98 C 107.30 232.52 98.62 232.14 94.66 236.71 M 315.87 242.07 C 314.46 245.37 312.35 248.31 309.47 250.48 C 312.39 257.19 320.17 259.74 326.65 261.69 C 330.11 264.96 334.95 265.63 339.28 267.12 C 324.77 277.13 306.71 279.44 291.12 287.18 C 281.24 293.59 274.24 303.41 267.86 313.12 C 268.80 304.65 273.88 297.48 276.12 289.38 C 279.55 282.48 282.55 274.27 281.15 266.47 C 274.11 276.02 270.07 287.44 265.09 298.13 C 261.59 301.70 260.80 306.94 259.55 311.58 C 256.97 323.56 257.20 337.81 266.27 347.14 C 273.74 340.45 262.44 332.47 265.68 324.61 C 268.76 312.66 282.02 310.06 291.73 305.78 C 301.59 306.03 308.02 296.15 317.94 297.21 C 345.56 297.16 369.23 280.67 389.97 264.16 C 386.43 264.64 382.42 264.24 379.34 266.27 C 367.02 266.67 355.44 262.74 343.95 258.90 C 337.44 254.87 329.41 253.59 323.65 248.33 C 321.21 246.05 318.51 244.10 315.87 242.07 M 269.85 339.01 C 270.95 338.63 272.06 338.26 273.16 337.88 C 275.35 338.98 277.66 339.84 279.93 340.77 C 281.18 339.55 282.46 338.35 283.66 337.08 C 285.37 332.47 283.92 325.26 277.94 325.20 C 270.75 324.61 267.73 333.24 269.85 339.01 M 150.37 330.66 C 145.64 335.06 146.48 343.34 152.63 346.02 C 155.07 342.21 159.05 339.92 163.35 342.45 C 165.37 338.16 167.20 331.71 162.23 328.69 C 158.34 327.50 153.97 329.04 150.37 330.66 M 263.62 355.59 C 258.75 362.67 251.42 367.16 243.83 370.80 C 224.03 379.56 201.49 374.78 181.95 367.79 C 171.44 363.14 163.92 354.53 157.48 345.34 C 157.77 351.37 161.93 356.06 165.02 360.92 C 168.76 366.60 173.41 371.81 179.54 374.98 C 194.66 384.22 213.78 388.47 231.15 383.89 C 234.09 383.52 236.84 382.32 239.62 381.36 C 242.30 380.10 244.86 378.58 247.37 377.01 C 255.51 372.72 262.23 366.08 267.72 358.77 C 271.11 352.74 276.33 346.98 275.95 339.62 C 270.58 343.80 268.56 350.88 263.62 355.59 Z" />
<path fill="#491111" opacity="1.00" d=" M 268.35 182.35 C 273.55 182.04 266.56 187.24 268.35 182.35 Z" />
<path fill="#491111" opacity="1.00" d=" M 266.13 191.17 C 262.34 189.37 267.77 186.40 267.60 190.45 C 267.24 190.63 266.50 190.99 266.13 191.17 Z" />
<path fill="#491111" opacity="1.00" d=" M 201.62 226.24 C 202.20 224.74 202.74 223.24 203.23 221.71 C 203.81 225.10 204.37 228.49 205.01 231.88 C 203.86 230.01 202.71 228.14 201.62 226.24 Z" />
<path fill="#491111" opacity="1.00" d=" M 95.83 240.76 C 98.13 238.09 102.46 237.36 105.33 239.53 C 107.98 244.77 108.00 251.25 112.24 255.70 C 120.99 265.88 133.03 272.45 143.96 279.98 C 153.55 284.29 162.26 290.79 166.53 300.73 C 166.23 302.65 165.97 304.57 165.83 306.51 C 157.61 293.78 141.15 291.38 127.20 291.51 C 109.10 291.56 92.61 283.60 76.32 276.72 C 72.10 274.31 65.08 272.55 64.28 267.25 C 69.30 260.49 77.84 257.61 84.25 252.36 C 88.88 249.31 92.03 244.68 95.83 240.76 Z" />
<path fill="#491111" opacity="1.00" d=" M 221.06 239.20 C 229.70 242.92 238.45 246.54 247.28 249.62 C 243.03 249.35 238.80 248.62 234.84 247.02 C 230.18 244.55 224.81 243.10 221.06 239.20 Z" />
</g>
<g id="#f73b39ff">
<path fill="#f73b39" opacity="1.00" d=" M 82.90 16.08 C 91.17 21.25 98.99 27.12 107.24 32.33 C 119.80 42.61 134.64 49.62 146.99 60.19 C 133.78 57.45 121.78 51.06 109.71 45.29 C 106.50 43.75 102.96 43.12 99.44 42.77 C 93.73 34.00 88.09 25.17 82.90 16.08 Z" />
<path fill="#f73b39" opacity="1.00" d=" M 307.34 66.08 C 326.27 51.41 345.55 37.20 364.83 23.00 C 359.42 34.77 353.41 46.24 347.51 57.76 C 332.21 56.91 318.21 64.61 303.87 68.81 C 305.04 67.93 306.19 67.00 307.34 66.08 Z" />
<path fill="#f73b39" opacity="1.00" d=" M 379.34 266.27 C 382.42 264.24 386.43 264.64 389.97 264.16 C 369.23 280.67 345.56 297.16 317.94 297.21 C 308.02 296.15 301.59 306.03 291.73 305.78 C 297.44 302.00 303.06 297.94 309.56 295.55 C 329.36 288.12 350.05 283.06 369.38 274.37 C 373.38 272.60 376.22 269.20 379.34 266.27 Z" />
<path fill="#f73b39" opacity="1.00" d=" M 19.10 272.34 C 21.76 271.75 24.42 271.14 27.07 270.50 C 40.35 283.01 54.91 295.39 73.05 299.90 C 91.30 303.68 110.18 300.34 128.45 304.00 C 128.40 304.56 128.30 305.66 128.25 306.21 C 112.82 305.98 97.40 305.69 81.99 304.99 C 72.88 304.46 62.93 305.31 54.92 300.10 C 47.82 295.71 39.56 293.30 33.08 287.90 C 27.69 283.43 23.16 278.02 19.10 272.34 Z" />
</g>
<g id="#ff8a0bff">
<path fill="#ff8a0b" opacity="1.00" d=" M 124.74 37.45 C 156.74 21.92 192.73 13.80 228.32 16.74 C 256.43 19.53 284.43 27.28 308.90 41.61 C 309.49 47.26 314.89 49.23 319.87 49.33 C 312.84 54.52 305.90 59.84 298.90 65.08 C 296.77 66.01 294.56 66.73 292.34 67.39 C 285.15 58.72 274.23 54.66 265.45 47.90 C 265.56 46.79 265.68 45.69 265.79 44.58 C 265.07 42.20 265.46 39.76 266.52 37.55 C 259.00 31.79 249.27 32.96 240.50 34.08 C 222.55 28.45 203.55 24.72 184.75 27.69 C 168.70 31.37 154.20 39.46 139.73 47.03 C 134.86 43.65 129.88 40.41 124.74 37.45 Z" />
</g>
<g id="#491011ff">
<path fill="#491011" opacity="1.00" d=" M 104.50 24.75 C 106.74 25.72 108.99 26.76 110.93 28.28 C 115.23 31.77 119.87 34.80 124.74 37.45 C 129.88 40.41 134.86 43.65 139.73 47.03 C 144.78 50.37 149.31 54.58 154.86 57.12 C 157.42 58.61 159.89 56.31 161.93 54.96 C 174.88 44.83 190.19 36.12 207.02 35.72 C 211.67 35.26 215.51 38.16 218.54 41.32 C 225.74 38.57 233.02 35.95 240.50 34.08 C 249.27 32.96 259.00 31.79 266.52 37.55 C 265.46 39.76 265.07 42.20 265.79 44.58 C 265.68 45.69 265.56 46.79 265.45 47.90 C 274.23 54.66 285.15 58.72 292.34 67.39 C 290.15 68.90 288.01 70.47 285.90 72.07 C 280.82 68.40 274.41 66.67 270.22 61.78 C 267.52 58.62 263.97 56.40 260.09 54.97 C 257.79 59.66 256.85 68.68 249.72 66.86 C 250.90 66.07 252.08 65.28 253.26 64.50 C 251.27 62.82 249.26 61.17 247.24 59.52 C 250.45 58.78 253.60 57.82 256.67 56.64 C 252.72 55.40 248.68 54.48 244.52 54.37 C 248.57 50.84 253.39 48.44 258.38 46.52 C 253.18 45.90 247.93 45.64 242.71 46.10 C 244.15 44.87 245.59 43.62 247.06 42.42 C 248.02 41.68 248.97 40.92 249.92 40.16 C 236.56 41.77 222.67 44.06 211.28 51.74 C 211.50 49.90 211.72 48.07 211.94 46.23 C 193.60 45.18 175.85 52.22 161.73 63.63 C 159.41 62.68 156.94 63.16 154.55 63.50 C 152.03 62.39 149.50 61.32 146.99 60.19 C 134.64 49.62 119.80 42.61 107.24 32.33 C 106.21 29.84 105.46 27.26 104.50 24.75 Z" />
<path fill="#491011" opacity="1.00" d=" M 270.55 234.44 C 271.02 234.36 271.97 234.19 272.44 234.11 C 270.79 235.59 269.24 237.18 267.69 238.76 C 268.68 237.35 269.60 235.88 270.55 234.44 Z" />
<path fill="#491011" opacity="1.00" d=" M 248.91 248.83 C 253.15 246.59 257.66 244.99 262.25 243.64 C 260.91 244.84 259.64 246.11 258.29 247.30 C 255.20 248.01 252.05 248.43 248.91 248.83 Z" />
</g>
<g id="#ff8f16ff">
<path fill="#ff8f16" opacity="1.00" d=" M 184.75 27.69 C 203.55 24.72 222.55 28.45 240.50 34.08 C 233.02 35.95 225.74 38.57 218.54 41.32 C 215.51 38.16 211.67 35.26 207.02 35.72 C 190.19 36.12 174.88 44.83 161.93 54.96 C 159.89 56.31 157.42 58.61 154.86 57.12 C 149.31 54.58 144.78 50.37 139.73 47.03 C 154.20 39.46 168.70 31.37 184.75 27.69 Z" />
</g>
<g id="#da7415ff">
<path fill="#da7415" opacity="1.00" d=" M 211.28 51.74 C 222.67 44.06 236.56 41.77 249.92 40.16 C 248.97 40.92 248.02 41.68 247.06 42.42 C 235.97 43.79 225.37 47.59 215.39 52.54 C 213.01 53.93 210.25 53.79 207.60 53.86 C 207.95 52.50 208.31 51.14 208.66 49.78 C 193.49 51.19 178.35 55.67 165.54 64.07 C 167.84 65.47 170.14 66.87 172.36 68.40 C 183.26 76.15 195.72 81.43 206.19 89.83 C 212.70 94.67 220.51 97.28 227.20 101.84 C 233.07 106.77 241.05 103.70 247.95 104.31 C 253.87 102.50 257.65 96.80 262.53 93.20 C 270.82 88.17 278.51 82.24 286.43 76.66 C 284.00 75.02 281.58 73.37 279.07 71.87 C 272.66 68.40 268.06 62.25 261.05 59.81 C 259.77 62.99 258.87 67.01 255.39 68.51 C 250.19 71.30 244.61 67.78 239.74 65.85 C 238.59 69.22 237.46 72.60 236.36 75.99 C 235.44 72.69 234.57 69.36 233.47 66.11 C 231.66 55.82 219.98 58.22 212.64 59.84 C 218.24 57.76 224.62 54.58 230.53 57.44 C 235.80 60.30 235.48 67.22 236.76 72.32 C 237.21 69.51 237.68 66.71 238.21 63.91 C 240.40 64.34 242.58 64.75 244.74 65.30 C 246.41 65.78 248.05 66.36 249.72 66.86 C 256.85 68.68 257.79 59.66 260.09 54.97 C 263.97 56.40 267.52 58.62 270.22 61.78 C 274.41 66.67 280.82 68.40 285.90 72.07 C 287.10 73.36 288.23 74.72 289.37 76.07 C 277.12 86.37 264.00 95.58 251.44 105.50 C 245.98 110.47 237.48 110.69 230.92 108.09 C 207.73 93.49 185.03 78.06 161.73 63.63 C 175.85 52.22 193.60 45.18 211.94 46.23 C 211.72 48.07 211.50 49.90 211.28 51.74 Z" />
<path fill="#da7415" opacity="1.00" d=" M 290.37 257.85 C 291.55 255.16 292.82 252.51 293.96 249.80 C 292.80 253.23 293.31 258.27 289.58 260.11 C 285.24 259.26 281.24 257.29 277.06 255.91 C 276.74 257.00 276.43 258.09 276.14 259.19 C 276.31 256.72 276.34 254.25 276.41 251.78 C 281.20 253.48 285.97 255.28 290.37 257.85 Z" />
</g>
<g id="#f86362ff">
<path fill="#f86362" opacity="1.00" d=" M 99.44 42.77 C 102.96 43.12 106.50 43.75 109.71 45.29 C 121.78 51.06 133.78 57.45 146.99 60.19 C 149.50 61.32 152.03 62.39 154.55 63.50 C 168.34 69.92 180.48 79.25 193.32 87.31 C 164.68 85.19 136.89 75.66 111.66 62.18 C 107.28 55.91 103.50 49.25 99.44 42.77 Z" />
<path fill="#f86362" opacity="1.00" d=" M 303.87 68.81 C 318.21 64.61 332.21 56.91 347.51 57.76 C 345.96 60.78 344.42 63.80 342.87 66.81 C 324.67 72.14 306.89 80.92 287.66 81.31 C 293.01 77.07 298.33 72.79 303.87 68.81 Z" />
</g>
<g id="#f8b741ff">
<path fill="#f8b741" opacity="1.00" d=" M 215.39 52.54 C 225.37 47.59 235.97 43.79 247.06 42.42 C 245.59 43.62 244.15 44.87 242.71 46.10 C 247.93 45.64 253.18 45.90 258.38 46.52 C 253.39 48.44 248.57 50.84 244.52 54.37 C 248.68 54.48 252.72 55.40 256.67 56.64 C 253.60 57.82 250.45 58.78 247.24 59.52 C 249.26 61.17 251.27 62.82 253.26 64.50 C 252.08 65.28 250.90 66.07 249.72 66.86 C 248.05 66.36 246.41 65.78 244.74 65.30 C 243.61 63.30 242.47 61.32 241.25 59.37 C 242.84 59.05 244.43 58.73 246.03 58.42 C 244.17 56.70 242.32 54.98 240.50 53.24 C 242.70 51.81 244.90 50.39 247.09 48.94 C 233.74 45.62 217.45 49.90 209.10 61.07 C 208.45 61.99 207.94 63.01 207.38 63.99 C 216.10 61.97 226.40 58.43 233.47 66.11 C 234.57 69.36 235.44 72.69 236.36 75.99 C 237.46 72.60 238.59 69.22 239.74 65.85 C 244.61 67.78 250.19 71.30 255.39 68.51 C 258.87 67.01 259.77 62.99 261.05 59.81 C 262.98 63.74 266.01 67.02 269.80 69.21 C 273.53 71.70 277.20 74.27 280.97 76.70 C 274.46 81.77 266.81 85.84 262.53 93.20 C 257.65 96.80 253.87 102.50 247.95 104.31 C 241.05 103.70 233.07 106.77 227.20 101.84 C 220.51 97.28 212.70 94.67 206.19 89.83 C 195.72 81.43 183.26 76.15 172.36 68.40 C 171.09 66.83 169.99 65.13 168.85 63.46 C 179.88 58.67 191.46 54.96 203.34 53.01 C 203.46 53.98 203.58 54.96 203.70 55.93 C 204.99 55.23 206.29 54.54 207.60 53.86 C 210.25 53.79 213.01 53.93 215.39 52.54 Z" />
</g>
<g id="#ff9e33ff">
<path fill="#ff9e33" opacity="1.00" d=" M 308.90 41.61 C 313.02 43.83 317.18 45.99 321.20 48.41 C 320.87 48.64 320.20 49.10 319.87 49.33 C 314.89 49.23 309.49 47.26 308.90 41.61 Z" />
</g>
<g id="#310405ff">
<path fill="#310405" opacity="1.00" d=" M 209.10 61.07 C 217.45 49.90 233.74 45.62 247.09 48.94 C 244.90 50.39 242.70 51.81 240.50 53.24 C 242.32 54.98 244.17 56.70 246.03 58.42 C 244.43 58.73 242.84 59.05 241.25 59.37 C 242.47 61.32 243.61 63.30 244.74 65.30 C 242.58 64.75 240.40 64.34 238.21 63.91 C 237.68 66.71 237.21 69.51 236.76 72.32 C 235.48 67.22 235.80 60.30 230.53 57.44 C 224.62 54.58 218.24 57.76 212.64 59.84 C 211.44 60.21 210.26 60.61 209.10 61.07 Z" />
<path fill="#310405" opacity="1.00" d=" M 198.07 220.87 C 199.04 219.48 200.02 218.10 200.99 216.72 C 200.95 219.66 200.93 222.62 201.22 225.55 C 200.21 223.97 199.10 222.44 198.07 220.87 Z" />
</g>
<g id="#f9cd73ff">
<path fill="#f9cd73" opacity="1.00" d=" M 165.54 64.07 C 178.35 55.67 193.49 51.19 208.66 49.78 C 208.31 51.14 207.95 52.50 207.60 53.86 C 206.29 54.54 204.99 55.23 203.70 55.93 C 203.58 54.96 203.46 53.98 203.34 53.01 C 191.46 54.96 179.88 58.67 168.85 63.46 C 169.99 65.13 171.09 66.83 172.36 68.40 C 170.14 66.87 167.84 65.47 165.54 64.07 Z" />
</g>
<g id="#ff8d11ff">
<path fill="#ff8d11" opacity="1.00" d=" M 15.14 199.32 C 20.50 142.09 50.39 86.00 98.54 53.68 C 101.96 60.64 106.82 66.76 110.37 73.65 C 102.29 79.52 93.15 83.94 85.83 90.83 C 71.05 104.70 62.82 123.62 54.84 141.85 C 44.55 165.73 31.04 188.97 28.32 215.31 C 27.67 228.15 30.02 240.98 33.74 253.23 C 34.21 255.62 36.24 257.02 37.83 258.63 C 32.05 260.42 26.38 262.56 20.57 264.25 C 15.89 243.00 12.57 221.09 15.14 199.32 Z" />
</g>
<g id="#f5c26aff">
<path fill="#f5c26a" opacity="1.00" d=" M 212.64 59.84 C 219.98 58.22 231.66 55.82 233.47 66.11 C 226.40 58.43 216.10 61.97 207.38 63.99 C 207.94 63.01 208.45 61.99 209.10 61.07 C 210.26 60.61 211.44 60.21 212.64 59.84 Z" />
</g>
<g id="#ecac5cff">
<path fill="#ecac5c" opacity="1.00" d=" M 261.05 59.81 C 268.06 62.25 272.66 68.40 279.07 71.87 C 276.01 70.87 272.85 70.21 269.80 69.21 C 266.01 67.02 262.98 63.74 261.05 59.81 Z" />
</g>
<g id="#f63a38ff">
<path fill="#f63a38" opacity="1.00" d=" M 111.66 62.18 C 136.89 75.66 164.68 85.19 193.32 87.31 C 206.72 95.89 220.31 104.25 233.29 113.46 C 229.11 114.15 224.87 114.72 220.63 114.31 C 201.09 112.41 181.17 111.69 162.34 105.62 C 150.58 101.71 140.59 93.90 128.82 90.00 C 122.76 80.94 117.10 71.62 111.66 62.18 Z" />
<path fill="#f63a38" opacity="1.00" d=" M 287.66 81.31 C 306.89 80.92 324.67 72.14 342.87 66.81 C 336.15 79.83 329.56 92.91 322.79 105.90 C 294.04 110.65 264.86 117.27 235.62 113.18 C 240.88 112.32 246.94 113.03 251.24 109.27 C 263.20 99.71 275.50 90.59 287.66 81.31 Z" />
</g>
<g id="#330505ff">
<path fill="#330505" opacity="1.00" d=" M 154.55 63.50 C 156.94 63.16 159.41 62.68 161.73 63.63 C 185.03 78.06 207.73 93.49 230.92 108.09 C 237.48 110.69 245.98 110.47 251.44 105.50 C 264.00 95.58 277.12 86.37 289.37 76.07 C 288.23 74.72 287.10 73.36 285.90 72.07 C 288.01 70.47 290.15 68.90 292.34 67.39 C 294.56 66.73 296.77 66.01 298.90 65.08 C 301.72 65.39 304.53 65.73 307.34 66.08 C 306.19 67.00 305.04 67.93 303.87 68.81 C 298.33 72.79 293.01 77.07 287.66 81.31 C 275.50 90.59 263.20 99.71 251.24 109.27 C 246.94 113.03 240.88 112.32 235.62 113.18 C 235.04 113.25 233.87 113.39 233.29 113.46 C 220.31 104.25 206.72 95.89 193.32 87.31 C 180.48 79.25 168.34 69.92 154.55 63.50 Z" />
<path fill="#330505" opacity="1.00" d=" M 269.54 179.07 C 274.42 177.29 269.24 184.28 269.54 179.07 Z" />
<path fill="#330505" opacity="1.00" d=" M 216.29 193.03 C 214.74 189.74 219.85 190.01 217.86 193.11 C 217.47 193.09 216.68 193.05 216.29 193.03 Z" />
</g>
<g id="#f8c970ff">
<path fill="#f8c970" opacity="1.00" d=" M 269.80 69.21 C 272.85 70.21 276.01 70.87 279.07 71.87 C 281.58 73.37 284.00 75.02 286.43 76.66 C 278.51 82.24 270.82 88.17 262.53 93.20 C 266.81 85.84 274.46 81.77 280.97 76.70 C 277.20 74.27 273.53 71.70 269.80 69.21 Z" />
</g>
<g id="#ff8b0dff">
<path fill="#ff8b0d" opacity="1.00" d=" M 331.91 99.67 C 336.70 89.19 342.15 79.02 346.91 68.54 C 353.93 74.00 359.72 80.80 365.44 87.56 C 402.77 132.82 420.78 195.09 408.29 252.94 C 398.81 254.86 389.56 258.47 379.71 257.49 C 379.48 244.01 383.61 230.72 381.80 217.20 C 378.87 191.59 373.99 165.91 364.04 142.02 C 356.98 125.51 345.34 111.41 331.91 99.67 Z" />
</g>
<g id="#ff9829ff">
<path fill="#ff9829" opacity="1.00" d=" M 85.83 90.83 C 93.15 83.94 102.29 79.52 110.37 73.65 C 112.11 76.73 114.23 79.57 116.60 82.18 C 112.15 89.81 103.12 93.03 98.59 100.57 C 95.12 105.91 94.99 112.59 95.55 118.72 C 84.20 135.20 76.97 154.08 69.23 172.39 C 59.55 196.54 51.86 224.01 61.00 249.53 C 53.58 253.29 45.66 255.88 37.83 258.63 C 36.24 257.02 34.21 255.62 33.74 253.23 C 30.02 240.98 27.67 228.15 28.32 215.31 C 31.04 188.97 44.55 165.73 54.84 141.85 C 62.82 123.62 71.05 104.70 85.83 90.83 Z" />
</g>
<g id="#d87316ff">
<path fill="#d87316" opacity="1.00" d=" M 119.36 90.76 C 120.16 89.88 120.94 88.98 121.73 88.08 C 124.62 91.96 126.99 96.19 129.63 100.23 C 125.02 104.95 118.64 106.82 113.12 110.11 C 109.07 112.41 109.74 117.63 109.12 121.57 C 102.84 110.24 114.10 100.12 122.92 94.65 C 121.73 93.35 120.55 92.06 119.36 90.76 Z" />
<path fill="#d87316" opacity="1.00" d=" M 192.39 293.09 C 194.59 294.30 196.88 295.35 199.23 296.25 C 197.67 296.11 196.11 296.06 194.55 296.00 C 194.21 303.01 194.99 310.00 194.95 317.00 C 194.20 333.02 186.64 347.70 177.52 360.54 C 174.64 358.70 171.75 356.87 168.84 355.08 C 183.77 339.07 190.91 315.00 182.08 294.20 C 185.52 293.88 188.96 293.52 192.39 293.09 Z" />
<path fill="#d87316" opacity="1.00" d=" M 65.71 348.67 C 82.29 340.40 102.17 344.63 118.41 351.65 C 129.50 359.12 143.03 366.81 156.65 361.08 C 158.65 364.49 160.61 367.92 162.98 371.09 C 160.44 371.93 157.90 372.82 155.24 373.25 C 149.71 373.78 143.89 373.58 138.79 371.13 C 128.57 366.31 117.46 361.83 105.93 363.02 C 97.85 363.71 89.77 364.29 81.67 364.48 C 75.98 359.60 70.67 354.30 65.71 348.67 Z" />
</g>
<g id="#f31211ff">
<path fill="#f31211" opacity="1.00" d=" M 128.82 90.00 C 140.59 93.90 150.58 101.71 162.34 105.62 C 181.17 111.69 201.09 112.41 220.63 114.31 C 224.87 114.72 229.11 114.15 233.29 113.46 C 233.87 113.39 235.04 113.25 235.62 113.18 C 264.86 117.27 294.04 110.65 322.79 105.90 C 315.27 120.36 307.92 134.91 300.26 149.30 C 290.09 149.82 279.90 150.19 269.76 151.18 C 263.04 140.23 256.87 128.91 249.80 118.18 C 246.81 113.09 238.45 113.64 236.16 119.08 C 231.53 128.63 227.02 138.26 222.82 148.01 C 197.28 146.94 172.84 137.55 150.73 125.21 C 143.16 113.65 135.73 101.98 128.82 90.00 Z" />
</g>
<g id="#f9b842ff">
<path fill="#f9b842" opacity="1.00" d=" M 119.36 90.76 C 120.55 92.06 121.73 93.35 122.92 94.65 C 114.10 100.12 102.84 110.24 109.12 121.57 L 109.04 122.41 C 108.94 122.75 108.72 123.43 108.61 123.77 C 102.60 119.56 100.58 110.89 104.78 104.72 C 108.87 99.31 115.06 96.00 119.36 90.76 Z" />
</g>
<g id="#ff9624ff">
<path fill="#ff9624" opacity="1.00" d=" M 326.69 118.07 C 324.51 111.32 329.29 105.48 331.91 99.67 C 345.34 111.41 356.98 125.51 364.04 142.02 C 373.99 165.91 378.87 191.59 381.80 217.20 C 383.61 230.72 379.48 244.01 379.71 257.49 C 371.95 257.78 364.09 257.33 356.79 254.47 C 358.01 254.30 359.24 254.12 360.46 253.92 C 363.26 229.88 362.55 205.03 355.29 181.80 C 352.10 166.67 346.40 152.22 339.50 138.42 C 335.22 131.65 330.44 125.17 326.69 118.07 Z" />
</g>
<g id="#dc7516ff">
<path fill="#dc7516" opacity="1.00" d=" M 112.39 116.28 C 119.81 113.95 127.65 113.22 135.39 114.01 C 134.79 117.28 132.10 118.94 129.37 120.31 C 129.54 118.49 129.71 116.67 129.88 114.85 C 125.04 118.28 115.48 125.10 112.39 116.28 Z" />
</g>
<g id="#762e12ff">
<path fill="#762e12" opacity="1.00" d=" M 135.39 114.01 C 136.29 115.93 137.33 117.79 138.48 119.59 C 134.80 121.53 130.69 122.53 126.57 121.57 C 127.50 121.16 128.44 120.74 129.37 120.31 C 132.10 118.94 134.79 117.28 135.39 114.01 Z" />
</g>
<g id="#de7615ff">
<path fill="#de7615" opacity="1.00" d=" M 314.85 129.33 C 316.28 124.71 318.74 120.48 321.95 116.88 C 322.16 122.10 320.28 127.62 314.85 129.33 Z" />
</g>
<g id="#d97315ff">
<path fill="#d97315" opacity="1.00" d=" M 140.67 118.59 C 158.19 139.74 170.74 164.34 186.08 187.01 C 197.49 180.29 208.03 172.23 219.25 165.23 C 222.33 171.90 227.81 178.04 235.35 179.37 C 240.58 180.29 247.41 181.29 248.21 187.78 C 243.00 181.09 233.30 183.11 227.29 177.70 C 223.85 174.79 220.91 171.35 217.87 168.04 C 209.06 175.09 200.20 182.04 190.78 188.26 C 186.91 187.92 182.36 187.63 180.09 183.94 C 171.76 171.48 162.81 159.43 155.07 146.57 C 150.56 138.83 146.17 130.97 140.70 123.84 C 137.04 128.83 134.98 134.70 133.77 140.72 C 131.90 150.10 126.60 158.19 123.04 166.95 C 126.66 165.98 130.26 164.90 133.79 163.60 C 134.14 163.86 134.83 164.38 135.18 164.64 C 132.52 166.65 129.85 168.63 127.25 170.73 C 126.85 170.37 126.05 169.64 125.65 169.28 C 121.97 171.31 118.32 173.40 114.86 175.78 C 119.15 164.15 130.16 155.65 130.91 142.66 C 126.96 147.23 123.65 152.29 120.07 157.14 C 121.16 145.85 126.37 135.75 131.12 125.66 C 123.63 126.99 115.60 127.28 108.61 123.77 C 108.72 123.43 108.94 122.75 109.04 122.41 C 114.81 124.67 121.22 125.15 126.57 121.57 C 130.69 122.53 134.80 121.53 138.48 119.59 C 139.21 119.26 139.94 118.93 140.67 118.59 Z" />
</g>
<g id="#f1b774ff">
<path fill="#f1b774" opacity="1.00" d=" M 235.79 125.27 C 237.54 122.32 238.82 117.61 243.02 117.66 C 246.75 117.25 248.54 121.16 250.36 123.70 C 256.42 133.89 262.85 143.88 268.43 154.35 C 259.23 159.03 247.95 160.83 238.17 156.91 C 233.37 155.11 228.20 154.81 223.12 154.85 C 226.87 145.66 229.71 135.87 235.52 127.71 C 235.07 131.92 234.04 136.03 232.78 140.06 C 239.97 142.94 247.80 142.59 255.14 140.49 C 253.55 135.87 251.97 131.24 249.73 126.89 C 248.24 123.79 246.04 121.11 243.81 118.53 C 240.87 120.57 238.92 123.45 238.30 126.98 C 238.08 127.03 237.64 127.12 237.42 127.17 C 236.86 126.55 236.32 125.90 235.79 125.27 Z" />
<path fill="#f1b774" opacity="1.00" d=" M 190.78 188.26 C 200.20 182.04 209.06 175.09 217.87 168.04 C 220.91 171.35 223.85 174.79 227.29 177.70 C 233.30 183.11 243.00 181.09 248.21 187.78 C 247.99 193.16 247.63 198.53 247.63 203.92 C 236.35 209.60 224.02 203.68 214.22 197.74 C 210.06 195.25 208.39 190.49 206.80 186.20 C 205.96 186.20 204.30 186.20 203.46 186.20 C 204.05 188.86 203.81 192.04 206.08 193.98 C 214.41 202.24 225.64 207.40 237.20 209.08 C 236.83 210.80 236.44 212.51 236.13 214.25 C 236.01 212.67 235.86 211.10 235.68 209.53 C 234.68 214.46 233.08 220.24 236.24 224.73 C 240.47 228.66 246.73 226.61 251.88 226.61 C 254.52 226.15 258.77 227.05 259.50 223.54 C 261.03 218.21 260.57 212.54 259.93 207.10 L 258.93 206.97 C 256.54 206.73 254.15 206.56 251.76 206.43 C 258.20 207.18 264.65 204.82 268.81 199.81 C 272.37 195.62 278.17 190.84 276.13 184.69 C 273.92 186.20 273.15 188.86 272.04 191.15 C 268.68 198.78 261.07 204.69 252.49 204.49 C 252.97 198.02 251.72 191.45 252.89 185.04 C 258.31 181.66 263.53 177.42 269.99 176.29 C 265.16 180.01 262.59 185.62 263.17 191.72 C 264.16 191.54 265.14 191.36 266.13 191.17 C 266.50 190.99 267.24 190.63 267.60 190.45 C 271.25 187.62 273.71 183.52 273.72 178.82 C 277.73 181.93 281.88 185.42 287.26 185.38 C 290.65 198.59 288.18 212.93 280.43 224.17 C 279.21 221.89 277.81 219.73 276.36 217.60 C 277.35 220.39 278.51 223.13 279.80 225.81 C 279.13 228.37 277.79 230.74 275.63 232.33 C 275.31 230.47 275.00 228.62 274.70 226.77 C 274.21 229.11 273.74 231.47 273.05 233.77 L 272.44 234.11 C 271.97 234.19 271.02 234.36 270.55 234.44 C 269.60 235.88 268.68 237.35 267.69 238.76 C 266.01 240.53 264.14 242.10 262.25 243.64 C 257.66 244.99 253.15 246.59 248.91 248.83 C 252.05 248.43 255.20 248.01 258.29 247.30 C 256.40 248.99 254.39 250.58 252.16 251.80 C 250.85 252.22 249.51 252.57 248.19 252.93 C 246.36 253.50 244.58 254.22 242.79 254.92 C 240.02 252.41 237.48 249.67 234.84 247.02 C 238.80 248.62 243.03 249.35 247.28 249.62 C 238.45 246.54 229.70 242.92 221.06 239.20 C 220.82 238.96 220.34 238.48 220.10 238.24 C 219.21 237.22 218.20 236.13 216.79 235.95 C 215.93 235.73 215.09 235.51 214.24 235.27 C 213.18 233.53 212.16 231.76 211.14 229.99 C 211.06 231.27 210.98 232.55 210.91 233.84 C 209.92 232.77 208.98 231.66 208.05 230.55 C 207.03 230.98 206.01 231.42 205.01 231.88 C 204.37 228.49 203.81 225.10 203.23 221.71 C 202.74 223.24 202.20 224.74 201.62 226.24 L 201.22 225.55 C 200.93 222.62 200.95 219.66 200.99 216.72 C 200.02 218.10 199.04 219.48 198.07 220.87 C 196.45 218.26 195.04 215.54 193.59 212.84 C 193.03 213.00 192.47 213.15 191.92 213.31 C 191.81 204.95 191.95 196.56 190.78 188.26 M 212.14 179.13 C 211.34 179.04 210.55 178.96 209.76 178.87 C 210.18 180.22 210.60 181.58 211.03 182.94 L 211.84 182.80 C 211.66 184.11 211.50 185.43 211.37 186.76 C 211.69 186.47 212.34 185.91 212.66 185.63 C 211.95 186.46 211.27 187.31 210.61 188.17 C 212.44 189.87 214.34 191.48 216.29 193.03 C 216.68 193.05 217.47 193.09 217.86 193.11 C 222.78 190.53 219.79 185.82 217.08 182.81 C 217.27 180.87 217.49 178.94 217.70 177.01 C 217.24 177.28 216.34 177.83 215.89 178.10 C 215.71 175.65 210.79 176.96 212.14 179.13 M 276.24 222.51 C 276.04 225.10 275.85 227.69 275.91 230.28 C 276.44 230.11 277.50 229.78 278.03 229.61 C 277.98 227.12 276.85 224.88 276.24 222.51 Z" />
</g>
<g id="#ff9d33ff">
<path fill="#ff9d33" opacity="1.00" d=" M 326.69 118.07 C 330.44 125.17 335.22 131.65 339.50 138.42 C 346.40 152.22 352.10 166.67 355.29 181.80 C 362.55 205.03 363.26 229.88 360.46 253.92 C 359.24 254.12 358.01 254.30 356.79 254.47 C 343.70 251.06 331.88 244.04 321.39 235.64 C 315.95 231.64 317.54 224.08 316.71 218.24 C 318.11 218.78 319.50 219.33 320.89 219.89 C 320.90 214.86 320.45 209.84 320.09 204.82 C 319.50 198.71 324.41 193.11 321.99 186.98 C 317.66 172.88 313.00 158.86 308.51 144.83 C 308.00 139.40 314.73 138.90 318.38 137.20 C 326.17 134.61 327.54 125.15 326.69 118.07 Z" />
</g>
<g id="#ff9e35ff">
<path fill="#ff9e35" opacity="1.00" d=" M 69.23 172.39 C 76.97 154.08 84.20 135.20 95.55 118.72 C 99.80 128.59 109.85 135.48 120.78 134.57 C 113.75 147.56 106.62 161.17 105.73 176.21 C 107.51 173.83 109.23 171.42 110.96 169.02 C 108.74 176.44 105.22 183.36 102.76 190.68 C 99.55 202.47 99.40 214.84 99.87 226.97 C 101.36 224.57 102.84 222.17 104.20 219.70 C 104.73 222.27 105.28 224.85 105.82 227.42 C 88.18 227.88 76.52 243.23 61.00 249.53 C 51.86 224.01 59.55 196.54 69.23 172.39 Z" />
</g>
<g id="#2d0303ff">
<path fill="#2d0303" opacity="1.00" d=" M 238.30 126.98 C 238.92 123.45 240.87 120.57 243.81 118.53 C 246.04 121.11 248.24 123.79 249.73 126.89 C 245.96 125.96 242.04 125.93 238.30 126.98 Z" />
<path fill="#2d0303" opacity="1.00" d=" M 212.14 179.13 C 210.79 176.96 215.71 175.65 215.89 178.10 C 214.79 178.84 213.49 179.42 212.14 179.13 Z" />
<path fill="#2d0303" opacity="1.00" d=" M 211.84 182.80 C 213.22 182.56 214.61 182.33 215.99 182.10 C 214.89 183.28 213.78 184.46 212.66 185.63 C 212.34 185.91 211.69 186.47 211.37 186.76 C 211.50 185.43 211.66 184.11 211.84 182.80 Z" />
<path fill="#2d0303" opacity="1.00" d=" M 215.16 186.20 C 217.96 185.44 216.21 190.57 214.14 189.26 C 213.25 188.26 214.12 186.69 215.16 186.20 Z" />
</g>
<g id="#f9cb71ff">
<path fill="#f9cb71" opacity="1.00" d=" M 133.77 140.72 C 134.98 134.70 137.04 128.83 140.70 123.84 C 146.17 130.97 150.56 138.83 155.07 146.57 C 148.94 141.06 145.69 133.36 140.88 126.80 C 136.13 138.71 135.24 151.99 127.81 162.82 C 130.59 162.61 133.38 162.43 136.17 162.31 C 135.38 162.75 134.59 163.18 133.79 163.60 C 130.26 164.90 126.66 165.98 123.04 166.95 C 126.60 158.19 131.90 150.10 133.77 140.72 Z" />
</g>
<g id="#c61211ff">
<path fill="#c61211" opacity="1.00" d=" M 150.73 125.21 C 172.84 137.55 197.28 146.94 222.82 148.01 C 220.42 153.27 221.37 160.56 215.90 163.95 C 206.25 170.41 196.70 177.02 186.90 183.24 C 174.51 164.11 162.45 144.75 150.73 125.21 Z" />
<path fill="#c61211" opacity="1.00" d=" M 269.76 151.18 C 279.90 150.19 290.09 149.82 300.26 149.30 C 295.02 159.69 289.92 170.17 284.13 180.27 C 280.32 177.66 276.42 175.21 272.43 172.91 C 273.61 165.60 272.81 157.95 269.76 151.18 Z" />
</g>
<g id="#f6cb8aff">
<path fill="#f6cb8a" opacity="1.00" d=" M 235.79 125.27 C 236.32 125.90 236.86 126.55 237.42 127.17 C 237.64 127.12 238.08 127.03 238.30 126.98 C 242.04 125.93 245.96 125.96 249.73 126.89 C 251.97 131.24 253.55 135.87 255.14 140.49 C 247.80 142.59 239.97 142.94 232.78 140.06 C 234.04 136.03 235.07 131.92 235.52 127.71 C 235.61 126.89 235.70 126.08 235.79 125.27 Z" />
</g>
<g id="#f7b741ff">
<path fill="#f7b741" opacity="1.00" d=" M 140.88 126.80 C 145.69 133.36 148.94 141.06 155.07 146.57 C 162.81 159.43 171.76 171.48 180.09 183.94 C 182.36 187.63 186.91 187.92 190.78 188.26 C 191.95 196.56 191.81 204.95 191.92 213.31 C 192.47 213.15 193.03 213.00 193.59 212.84 C 195.04 215.54 196.45 218.26 198.07 220.87 C 199.10 222.44 200.21 223.97 201.22 225.55 L 201.62 226.24 C 202.71 228.14 203.86 230.01 205.01 231.88 C 206.01 231.42 207.03 230.98 208.05 230.55 C 208.98 231.66 209.92 232.77 210.91 233.84 C 211.99 234.37 213.10 234.86 214.24 235.27 C 215.09 235.51 215.93 235.73 216.79 235.95 C 215.26 238.15 218.48 240.14 220.10 238.24 C 220.34 238.48 220.82 238.96 221.06 239.20 C 224.81 243.10 230.18 244.55 234.84 247.02 C 237.48 249.67 240.02 252.41 242.79 254.92 C 237.67 256.83 232.27 258.03 227.53 260.84 C 235.69 261.73 243.16 265.25 249.09 270.91 C 249.46 267.34 249.84 263.77 250.23 260.21 C 252.49 260.69 254.75 261.18 257.01 261.66 C 256.82 260.46 256.64 259.26 256.41 258.07 C 255.12 255.90 253.63 253.85 252.16 251.80 C 254.39 250.58 256.40 248.99 258.29 247.30 C 259.64 246.11 260.91 244.84 262.25 243.64 C 264.14 242.10 266.01 240.53 267.69 238.76 C 269.24 237.18 270.79 235.59 272.44 234.11 L 273.05 233.77 C 273.92 233.30 274.77 232.82 275.63 232.33 C 277.79 230.74 279.13 228.37 279.80 225.81 C 279.96 225.40 280.27 224.58 280.43 224.17 C 288.18 212.93 290.65 198.59 287.26 185.38 C 291.57 176.04 297.63 167.65 302.03 158.35 C 302.84 163.46 304.43 168.38 305.83 173.34 C 304.23 173.60 302.63 173.86 301.03 174.12 C 304.22 180.98 307.17 187.95 309.90 195.01 C 306.99 193.64 304.08 192.28 301.16 190.93 C 303.59 197.08 305.74 203.33 307.51 209.70 C 304.62 206.98 301.34 204.74 297.91 202.77 C 298.81 210.74 302.12 218.11 304.18 225.80 C 301.83 223.91 299.50 222.01 297.15 220.13 C 297.80 228.73 299.99 237.13 300.22 245.77 C 299.43 245.27 298.66 244.78 297.88 244.28 C 297.84 243.92 297.75 243.20 297.71 242.83 C 297.38 239.91 295.92 237.32 294.61 234.75 C 293.44 241.46 292.64 248.29 290.15 254.69 C 285.41 252.15 279.79 247.47 274.23 250.08 C 272.93 253.44 272.95 257.09 272.77 260.63 C 269.62 259.39 266.27 258.82 263.00 258.03 C 262.09 265.14 256.90 270.77 256.21 277.92 C 255.41 285.74 250.34 292.02 247.69 299.20 C 245.04 306.66 246.99 314.57 247.43 322.20 C 247.89 328.35 247.00 334.49 247.12 340.64 C 245.38 341.45 243.64 342.28 241.90 343.10 C 240.59 343.71 239.27 344.31 237.96 344.93 C 238.29 343.94 238.63 342.97 239.00 342.00 C 240.91 338.84 241.83 335.27 241.25 331.58 C 240.17 332.08 239.10 332.59 238.04 333.13 C 236.97 333.67 235.93 334.24 234.91 334.86 C 234.09 335.38 233.28 335.91 232.47 336.45 C 230.58 337.32 228.61 338.02 226.66 338.76 C 224.76 346.85 219.71 354.12 220.15 362.71 C 220.54 368.53 214.29 370.81 209.79 372.28 C 198.36 370.74 186.85 367.57 177.52 360.54 C 186.64 347.70 194.20 333.02 194.95 317.00 C 194.99 310.00 194.21 303.01 194.55 296.00 C 196.11 296.06 197.67 296.11 199.23 296.25 C 200.60 296.65 201.98 297.05 203.37 297.46 C 196.18 290.05 188.19 283.39 181.60 275.41 C 174.18 265.74 168.16 255.11 161.76 244.76 C 161.53 246.16 161.30 247.56 161.01 248.94 C 160.87 249.58 160.58 250.84 160.43 251.48 C 159.49 254.43 158.30 257.30 157.08 260.15 C 153.36 256.14 149.28 252.50 144.70 249.51 C 141.23 246.37 138.62 242.45 136.31 238.42 C 138.38 236.83 140.43 235.20 142.43 233.54 C 146.30 239.71 154.32 242.22 160.74 238.43 C 159.86 237.57 158.99 236.71 158.08 235.90 C 160.12 235.50 162.15 235.05 164.21 234.72 C 158.89 233.08 152.74 231.35 149.98 226.01 C 146.71 219.69 148.39 212.25 147.60 205.44 C 144.44 210.09 141.78 215.04 139.19 220.02 C 140.32 210.57 144.29 201.88 147.11 192.89 C 135.36 195.61 129.91 207.31 127.70 218.08 C 126.66 214.53 125.01 211.20 123.78 207.71 C 122.54 210.87 121.30 214.03 120.13 217.22 C 119.60 208.80 119.89 200.36 120.55 191.96 C 118.64 193.63 116.71 195.26 114.77 196.89 C 118.25 184.21 127.44 174.74 135.81 165.15 L 135.18 164.64 C 134.83 164.38 134.14 163.86 133.79 163.60 C 134.59 163.18 135.38 162.75 136.17 162.31 C 133.38 162.43 130.59 162.61 127.81 162.82 C 135.24 151.99 136.13 138.71 140.88 126.80 Z" />
<path fill="#f7b741" opacity="1.00" d=" M 345.47 352.46 C 348.89 351.73 351.92 353.59 354.49 355.63 C 345.01 365.07 334.61 373.70 323.25 380.78 C 318.53 374.46 310.43 376.27 303.91 373.73 C 306.25 370.43 307.99 366.75 309.07 362.85 C 321.13 359.18 332.86 353.95 345.47 352.46 Z" />
<path fill="#f7b741" opacity="1.00" d=" M 81.67 364.48 C 89.77 364.29 97.85 363.71 105.93 363.02 C 117.46 361.83 128.57 366.31 138.79 371.13 C 143.89 373.58 149.71 373.78 155.24 373.25 C 145.25 374.44 132.64 374.12 126.52 383.71 C 118.91 380.77 110.72 379.21 102.55 380.26 C 95.15 375.60 88.24 370.25 81.67 364.48 Z" />
</g>
<g id="#db7515ff">
<path fill="#db7515" opacity="1.00" d=" M 287.74 179.77 C 293.05 169.49 298.13 159.08 303.73 148.95 C 305.04 161.97 314.75 172.02 316.07 185.01 C 314.71 183.64 313.34 182.29 312.08 180.82 C 308.02 173.11 306.45 164.43 302.88 156.52 C 302.67 156.97 302.24 157.89 302.03 158.35 C 297.63 167.65 291.57 176.04 287.26 185.38 C 281.88 185.42 277.73 181.93 273.72 178.82 C 272.50 177.94 271.26 177.09 269.99 176.29 C 263.53 177.42 258.31 181.66 252.89 185.04 C 256.76 179.32 263.43 176.80 268.98 173.12 C 270.03 173.82 271.08 174.53 272.11 175.25 C 276.20 177.86 279.51 181.74 284.10 183.50 C 286.09 183.44 286.73 181.12 287.74 179.77 Z" />
</g>
<g id="#f8cd8bff">
<path fill="#f8cd8b" opacity="1.00" d=" M 238.17 156.91 C 247.95 160.83 259.23 159.03 268.43 154.35 C 268.53 154.79 268.72 155.66 268.82 156.10 C 262.61 160.06 255.51 163.14 248.00 162.89 C 238.69 163.56 231.47 155.05 221.98 157.13 C 222.27 156.56 222.84 155.42 223.12 154.85 C 228.20 154.81 233.37 155.11 238.17 156.91 Z" />
</g>
<g id="#f7c669ff">
<path fill="#f7c669" opacity="1.00" d=" M 302.88 156.52 C 306.45 164.43 308.02 173.11 312.08 180.82 C 310.09 180.50 308.11 180.18 306.13 179.86 C 306.75 180.89 307.37 181.91 307.99 182.94 C 310.61 189.13 312.42 195.62 313.85 202.18 C 310.95 199.87 307.96 197.68 304.87 195.64 C 305.55 197.41 306.24 199.18 306.98 200.93 C 310.15 206.80 311.25 213.40 310.79 220.03 C 308.30 216.27 305.51 212.72 302.35 209.50 C 303.36 212.72 304.55 215.89 305.87 219.00 C 307.17 223.72 307.35 228.66 306.63 233.49 L 306.10 232.90 C 304.45 231.19 302.69 229.58 300.94 227.98 C 301.45 234.99 306.09 244.77 298.44 249.39 C 298.23 247.68 298.06 245.98 297.88 244.28 C 298.66 244.78 299.43 245.27 300.22 245.77 C 299.99 237.13 297.80 228.73 297.15 220.13 C 299.50 222.01 301.83 223.91 304.18 225.80 C 302.12 218.11 298.81 210.74 297.91 202.77 C 301.34 204.74 304.62 206.98 307.51 209.70 C 305.74 203.33 303.59 197.08 301.16 190.93 C 304.08 192.28 306.99 193.64 309.90 195.01 C 307.17 187.95 304.22 180.98 301.03 174.12 C 302.63 173.86 304.23 173.60 305.83 173.34 C 304.43 168.38 302.84 163.46 302.03 158.35 C 302.24 157.89 302.67 156.97 302.88 156.52 Z" />
</g>
<g id="#f9cb70ff">
<path fill="#f9cb70" opacity="1.00" d=" M 127.25 170.73 C 129.85 168.63 132.52 166.65 135.18 164.64 L 135.81 165.15 C 127.44 174.74 118.25 184.21 114.77 196.89 C 116.71 195.26 118.64 193.63 120.55 191.96 C 119.89 200.36 119.60 208.80 120.13 217.22 C 121.30 214.03 122.54 210.87 123.78 207.71 C 125.01 211.20 126.66 214.53 127.70 218.08 C 129.91 207.31 135.36 195.61 147.11 192.89 C 144.29 201.88 140.32 210.57 139.19 220.02 C 141.78 215.04 144.44 210.09 147.60 205.44 C 148.39 212.25 146.71 219.69 149.98 226.01 C 152.74 231.35 158.89 233.08 164.21 234.72 C 162.15 235.05 160.12 235.50 158.08 235.90 L 157.51 235.57 C 153.72 233.25 149.10 231.13 147.39 226.70 C 146.07 222.36 146.27 217.73 145.61 213.27 C 143.22 217.80 142.25 223.31 138.09 226.69 C 136.37 218.33 139.85 210.28 139.80 201.97 C 139.83 201.50 139.88 200.57 139.91 200.10 C 132.80 205.29 130.70 214.16 128.39 222.14 C 126.94 219.12 125.30 216.18 123.67 213.26 C 122.97 217.48 120.55 221.14 119.67 225.32 C 117.36 215.92 117.22 206.22 117.77 196.62 C 115.67 200.19 113.30 203.60 111.29 207.23 C 109.90 193.53 119.28 182.54 126.09 171.70 C 126.38 171.45 126.96 170.97 127.25 170.73 Z" />
</g>
<g id="#da7416ff">
<path fill="#da7416" opacity="1.00" d=" M 105.03 208.72 C 108.85 194.99 114.06 180.39 126.09 171.70 C 119.28 182.54 109.90 193.53 111.29 207.23 C 113.30 203.60 115.67 200.19 117.77 196.62 C 117.22 206.22 117.36 215.92 119.67 225.32 C 120.55 221.14 122.97 217.48 123.67 213.26 C 125.30 216.18 126.94 219.12 128.39 222.14 C 130.70 214.16 132.80 205.29 139.91 200.10 C 139.88 200.57 139.83 201.50 139.80 201.97 C 135.02 208.25 132.61 216.10 132.68 223.96 C 132.81 227.69 136.59 229.55 139.02 231.81 C 140.51 231.15 142.02 230.50 143.52 229.86 C 146.68 233.79 152.44 240.54 157.51 235.57 L 158.08 235.90 C 158.99 236.71 159.86 237.57 160.74 238.43 C 154.32 242.22 146.30 239.71 142.43 233.54 C 140.43 235.20 138.38 236.83 136.31 238.42 C 138.62 242.45 141.23 246.37 144.70 249.51 C 145.88 251.70 146.88 253.99 148.03 256.20 C 136.23 246.85 130.83 232.48 123.71 219.73 C 123.07 224.89 122.42 230.04 121.68 235.19 C 116.27 225.76 116.03 214.79 115.25 204.26 C 112.54 209.90 112.49 216.19 111.42 222.26 C 109.92 216.50 109.77 210.54 110.00 204.63 C 108.34 205.99 106.68 207.35 105.03 208.72 Z" />
</g>
<g id="#f8cc8aff">
<path fill="#f8cc8a" opacity="1.00" d=" M 215.89 178.10 C 216.34 177.83 217.24 177.28 217.70 177.01 C 217.49 178.94 217.27 180.87 217.08 182.81 C 219.79 185.82 222.78 190.53 217.86 193.11 C 219.85 190.01 214.74 189.74 216.29 193.03 C 214.34 191.48 212.44 189.87 210.61 188.17 C 211.27 187.31 211.95 186.46 212.66 185.63 C 213.78 184.46 214.89 183.28 215.99 182.10 C 214.61 182.33 213.22 182.56 211.84 182.80 L 211.03 182.94 C 210.60 181.58 210.18 180.22 209.76 178.87 C 210.55 178.96 211.34 179.04 212.14 179.13 C 213.49 179.42 214.79 178.84 215.89 178.10 M 215.16 186.20 C 214.12 186.69 213.25 188.26 214.14 189.26 C 216.21 190.57 217.96 185.44 215.16 186.20 Z" />
</g>
<g id="#f7cb8aff">
<path fill="#f7cb8a" opacity="1.00" d=" M 263.17 191.72 C 262.59 185.62 265.16 180.01 269.99 176.29 C 271.26 177.09 272.50 177.94 273.72 178.82 C 273.71 183.52 271.25 187.62 267.60 190.45 C 267.77 186.40 262.34 189.37 266.13 191.17 C 265.14 191.36 264.16 191.54 263.17 191.72 M 269.54 179.07 C 269.24 184.28 274.42 177.29 269.54 179.07 M 268.35 182.35 C 266.56 187.24 273.55 182.04 268.35 182.35 Z" />
</g>
<g id="#d5751bff">
<path fill="#d5751b" opacity="1.00" d=" M 307.99 182.94 C 314.29 188.89 315.48 197.62 316.23 205.80 C 313.17 204.12 310.10 202.48 306.98 200.93 C 306.24 199.18 305.55 197.41 304.87 195.64 C 307.96 197.68 310.95 199.87 313.85 202.18 C 312.42 195.62 310.61 189.13 307.99 182.94 Z" />
</g>
<g id="#460e10ff">
<path fill="#460e10" opacity="1.00" d=" M 132.68 223.96 C 132.61 216.10 135.02 208.25 139.80 201.97 C 139.85 210.28 136.37 218.33 138.09 226.69 C 142.25 223.31 143.22 217.80 145.61 213.27 C 146.27 217.73 146.07 222.36 147.39 226.70 C 149.10 231.13 153.72 233.25 157.51 235.57 C 152.44 240.54 146.68 233.79 143.52 229.86 C 142.02 230.50 140.51 231.15 139.02 231.81 C 136.59 229.55 132.81 227.69 132.68 223.96 Z" />
</g>
<g id="#fdf6e7ff">
<path fill="#fdf6e7" opacity="1.00" d=" M 237.20 209.08 C 241.29 208.61 245.23 207.37 249.12 206.09 C 249.12 211.94 250.06 217.91 248.86 223.69 C 247.02 226.66 242.49 225.12 239.68 224.43 C 235.08 223.25 236.24 217.81 236.13 214.25 C 236.44 212.51 236.83 210.80 237.20 209.08 Z" />
<path fill="#fdf6e7" opacity="1.00" d=" M 250.87 206.40 L 251.76 206.43 C 254.15 206.56 256.54 206.73 258.93 206.97 C 258.56 212.99 260.32 219.76 256.85 225.14 C 254.92 224.72 252.95 224.65 251.00 224.46 C 250.83 218.44 250.59 212.42 250.87 206.40 Z" />
</g>
<g id="#440d10ff">
<path fill="#440d10" opacity="1.00" d=" M 276.36 217.60 C 277.81 219.73 279.21 221.89 280.43 224.17 C 280.27 224.58 279.96 225.40 279.80 225.81 C 278.51 223.13 277.35 220.39 276.36 217.60 Z" />
<path fill="#440d10" opacity="1.00" d=" M 211.14 229.99 C 212.16 231.76 213.18 233.53 214.24 235.27 C 213.10 234.86 211.99 234.37 210.91 233.84 C 210.98 232.55 211.06 231.27 211.14 229.99 Z" />
<path fill="#440d10" opacity="1.00" d=" M 248.19 252.93 C 249.51 252.57 250.85 252.22 252.16 251.80 C 253.63 253.85 255.12 255.90 256.41 258.07 C 253.33 257.89 250.25 257.69 247.17 257.46 C 247.41 260.71 247.58 263.98 247.77 267.24 C 243.51 263.34 238.04 260.61 232.43 259.55 C 236.65 259.21 240.88 259.55 245.02 260.42 C 244.43 258.94 243.85 257.44 243.29 255.95 C 245.42 255.66 247.57 255.43 249.69 255.01 C 249.22 254.29 248.72 253.60 248.19 252.93 Z" />
</g>
<g id="#dc7616ff">
<path fill="#dc7616" opacity="1.00" d=" M 305.87 219.00 C 309.48 225.83 311.63 233.33 312.03 241.06 C 310.24 238.53 308.53 235.94 306.63 233.49 C 307.35 228.66 307.17 223.72 305.87 219.00 Z" />
<path fill="#dc7616" opacity="1.00" d=" M 343.73 337.91 C 352.18 335.45 362.47 331.39 370.51 336.90 C 370.17 337.35 369.48 338.25 369.14 338.70 C 363.26 334.84 356.46 336.87 350.11 337.96 C 347.98 338.03 345.86 337.97 343.73 337.91 Z" />
</g>
<g id="#7a4332ff">
<path fill="#7a4332" opacity="1.00" d=" M 276.24 222.51 C 276.85 224.88 277.98 227.12 278.03 229.61 C 277.50 229.78 276.44 230.11 275.91 230.28 C 275.85 227.69 276.04 225.10 276.24 222.51 Z" />
</g>
<g id="#763b28ff">
<path fill="#763b28" opacity="1.00" d=" M 273.05 233.77 C 273.74 231.47 274.21 229.11 274.70 226.77 C 275.00 228.62 275.31 230.47 275.63 232.33 C 274.77 232.82 273.92 233.30 273.05 233.77 Z" />
</g>
<g id="#dc7414ff">
<path fill="#dc7414" opacity="1.00" d=" M 300.94 227.98 C 302.69 229.58 304.45 231.19 306.10 232.90 C 306.16 236.99 307.08 241.19 306.08 245.21 C 303.53 249.25 299.58 252.13 296.52 255.75 C 296.02 252.30 295.44 248.87 295.06 245.41 C 295.11 244.01 295.17 242.62 295.24 241.23 C 296.06 241.76 296.88 242.29 297.71 242.83 C 297.75 243.20 297.84 243.92 297.88 244.28 C 298.06 245.98 298.23 247.68 298.44 249.39 C 306.09 244.77 301.45 234.99 300.94 227.98 Z" />
</g>
<g id="#ad1e0bff">
<path fill="#ad1e0b" opacity="1.00" d=" M 94.66 236.71 C 98.62 232.14 107.30 232.52 108.98 238.98 C 113.64 251.35 123.80 260.13 133.48 268.55 C 146.39 277.34 161.40 283.41 172.76 294.26 C 184.46 311.57 178.19 336.08 165.25 351.01 C 164.61 349.83 163.98 348.65 163.35 347.47 C 168.13 342.58 169.44 335.95 168.87 329.35 C 171.23 321.49 172.46 313.38 172.56 305.16 C 170.50 303.75 168.44 302.34 166.53 300.73 C 162.26 290.79 153.55 284.29 143.96 279.98 C 133.03 272.45 120.99 265.88 112.24 255.70 C 108.00 251.25 107.98 244.77 105.33 239.53 C 102.46 237.36 98.13 238.09 95.83 240.76 C 92.03 244.68 88.88 249.31 84.25 252.36 C 80.85 251.62 77.33 250.99 73.89 251.84 C 80.80 246.76 88.44 242.70 94.66 236.71 Z" />
<path fill="#ad1e0b" opacity="1.00" d=" M 265.09 298.13 C 270.07 287.44 274.11 276.02 281.15 266.47 C 282.55 274.27 279.55 282.48 276.12 289.38 C 272.68 292.58 268.60 295.00 265.09 298.13 Z" />
</g>
<g id="#f9cc72ff">
<path fill="#f9cc72" opacity="1.00" d=" M 294.61 234.75 C 295.92 237.32 297.38 239.91 297.71 242.83 C 296.88 242.29 296.06 241.76 295.24 241.23 C 295.17 242.62 295.11 244.01 295.06 245.41 C 294.71 246.88 294.33 248.34 293.96 249.80 C 292.82 252.51 291.55 255.16 290.37 257.85 C 285.97 255.28 281.20 253.48 276.41 251.78 C 276.34 254.25 276.31 256.72 276.14 259.19 C 275.77 261.01 275.40 262.82 275.07 264.65 C 271.34 263.29 267.68 261.73 264.11 259.99 C 263.84 264.42 263.48 268.85 263.08 273.28 C 262.18 273.44 261.29 273.60 260.40 273.77 C 260.43 274.80 260.47 275.83 260.49 276.87 C 260.90 285.29 256.63 293.58 249.84 298.48 C 249.30 298.66 248.23 299.02 247.69 299.20 C 250.34 292.02 255.41 285.74 256.21 277.92 C 256.90 270.77 262.09 265.14 263.00 258.03 C 266.27 258.82 269.62 259.39 272.77 260.63 C 272.95 257.09 272.93 253.44 274.23 250.08 C 279.79 247.47 285.41 252.15 290.15 254.69 C 292.64 248.29 293.44 241.46 294.61 234.75 Z" />
</g>
<g id="#733920ff">
<path fill="#733920" opacity="1.00" d=" M 220.10 238.24 C 218.48 240.14 215.26 238.15 216.79 235.95 C 218.20 236.13 219.21 237.22 220.10 238.24 Z" />
</g>
<g id="#ac1e0bff">
<path fill="#ac1e0b" opacity="1.00" d=" M 315.87 242.07 C 318.51 244.10 321.21 246.05 323.65 248.33 C 329.41 253.59 337.44 254.87 343.95 258.90 C 338.05 258.74 332.35 260.40 326.65 261.69 C 320.17 259.74 312.39 257.19 309.47 250.48 C 312.35 248.31 314.46 245.37 315.87 242.07 Z" />
<path fill="#ac1e0b" opacity="1.00" d=" M 329.51 304.34 C 340.83 303.11 351.05 297.76 361.62 293.92 C 367.15 303.77 376.82 310.56 381.36 321.08 C 380.65 322.19 379.94 323.29 379.23 324.39 C 358.23 317.23 335.01 319.01 313.94 324.96 C 317.55 321.48 321.07 317.91 324.49 314.24 C 313.24 319.18 304.66 330.94 291.44 330.52 C 291.61 318.52 301.83 310.49 311.68 305.70 C 317.31 303.13 323.59 304.99 329.51 304.34 Z" />
<path fill="#ac1e0b" opacity="1.00" d=" M 56.27 310.97 C 84.37 313.91 114.28 306.47 140.55 319.92 C 134.73 327.29 124.84 327.46 116.42 325.61 C 101.82 320.71 85.69 322.31 71.35 327.34 C 65.45 328.98 59.98 331.94 55.44 336.05 C 52.74 332.44 50.10 328.78 47.65 325.00 C 50.22 320.14 53.18 315.50 56.27 310.97 Z" />
<path fill="#ac1e0b" opacity="1.00" d=" M 122.81 345.83 C 131.44 346.46 140.21 348.91 148.81 346.65 C 152.81 348.69 154.86 352.33 154.27 356.86 C 142.85 357.31 131.35 353.49 122.81 345.83 Z" />
</g>
<g id="#f5c16aff">
<path fill="#f5c16a" opacity="1.00" d=" M 161.76 244.76 C 168.16 255.11 174.18 265.74 181.60 275.41 C 188.19 283.39 196.18 290.05 203.37 297.46 C 201.98 297.05 200.60 296.65 199.23 296.25 C 196.88 295.35 194.59 294.30 192.39 293.09 C 184.22 288.00 176.73 281.24 172.93 272.20 C 168.68 264.59 165.47 256.44 161.01 248.94 C 161.30 247.56 161.53 246.16 161.76 244.76 Z" />
</g>
<g id="#f4be68ff">
<path fill="#f4be68" opacity="1.00" d=" M 144.70 249.51 C 149.28 252.50 153.36 256.14 157.08 260.15 C 158.30 257.30 159.49 254.43 160.43 251.48 C 160.49 256.37 160.89 261.27 160.94 266.17 C 157.76 264.32 154.56 262.49 151.64 260.26 C 150.40 258.93 149.22 257.57 148.03 256.20 C 146.88 253.99 145.88 251.70 144.70 249.51 Z" />
</g>
<g id="#d97316ff">
<path fill="#d97316" opacity="1.00" d=" M 161.01 248.94 C 165.47 256.44 168.68 264.59 172.93 272.20 C 171.60 271.01 170.19 269.92 168.79 268.82 C 169.52 273.39 170.72 277.87 172.51 282.14 C 161.75 274.82 149.79 268.77 140.92 259.06 C 146.88 262.06 152.58 265.59 158.73 268.23 C 156.37 265.56 154.02 262.90 151.64 260.26 C 154.56 262.49 157.76 264.32 160.94 266.17 C 160.89 261.27 160.49 256.37 160.43 251.48 C 160.58 250.84 160.87 249.58 161.01 248.94 Z" />
</g>
<g id="#f41211ff">
<path fill="#f41211" opacity="1.00" d=" M 73.89 251.84 C 77.33 250.99 80.85 251.62 84.25 252.36 C 77.84 257.61 69.30 260.49 64.28 267.25 C 65.08 272.55 72.10 274.31 76.32 276.72 C 92.61 283.60 109.10 291.56 127.20 291.51 C 141.15 291.38 157.61 293.78 165.83 306.51 C 165.97 304.57 166.23 302.65 166.53 300.73 C 168.44 302.34 170.50 303.75 172.56 305.16 C 172.46 313.38 171.23 321.49 168.87 329.35 C 167.02 327.87 165.19 326.36 163.35 324.87 C 164.03 320.03 165.39 314.11 161.97 310.03 C 151.79 304.02 139.43 307.17 128.25 306.21 C 128.30 305.66 128.40 304.56 128.45 304.00 C 110.18 300.34 91.30 303.68 73.05 299.90 C 54.91 295.39 40.35 283.01 27.07 270.50 C 43.15 265.57 59.22 260.19 73.89 251.84 Z" />
<path fill="#f41211" opacity="1.00" d=" M 326.65 261.69 C 332.35 260.40 338.05 258.74 343.95 258.90 C 355.44 262.74 367.02 266.67 379.34 266.27 C 376.22 269.20 373.38 272.60 369.38 274.37 C 350.05 283.06 329.36 288.12 309.56 295.55 C 303.06 297.94 297.44 302.00 291.73 305.78 C 282.02 310.06 268.76 312.66 265.68 324.61 C 262.44 332.47 273.74 340.45 266.27 347.14 C 257.20 337.81 256.97 323.56 259.55 311.58 C 260.80 306.94 261.59 301.70 265.09 298.13 C 268.60 295.00 272.68 292.58 276.12 289.38 C 273.88 297.48 268.80 304.65 267.86 313.12 C 274.24 303.41 281.24 293.59 291.12 287.18 C 306.71 279.44 324.77 277.13 339.28 267.12 C 334.95 265.63 330.11 264.96 326.65 261.69 Z" />
<path fill="#f41211" opacity="1.00" d=" M 313.94 324.96 C 335.01 319.01 358.23 317.23 379.23 324.39 C 377.98 326.30 376.70 328.20 375.40 330.08 C 359.93 325.07 341.85 327.11 328.22 336.24 C 316.26 344.12 303.59 351.05 290.15 356.06 C 286.08 357.80 281.66 357.16 277.47 356.36 C 277.89 352.01 278.43 347.67 279.06 343.35 C 294.08 347.75 304.82 334.56 313.94 324.96 Z" />
<path fill="#f41211" opacity="1.00" d=" M 71.35 327.34 C 85.69 322.31 101.82 320.71 116.42 325.61 C 112.75 325.34 109.07 325.25 105.39 325.10 C 105.04 325.53 104.33 326.40 103.97 326.84 C 113.26 330.42 121.76 335.61 130.09 340.99 C 135.66 345.00 143.35 342.32 148.81 346.65 C 140.21 348.91 131.44 346.46 122.81 345.83 C 115.62 338.76 106.17 334.18 96.01 333.77 C 83.22 332.10 71.22 337.41 59.30 341.10 C 57.99 339.43 56.71 337.74 55.44 336.05 C 59.98 331.94 65.45 328.98 71.35 327.34 Z" />
</g>
<g id="#d97114ff">
<path fill="#d97114" opacity="1.00" d=" M 248.19 252.93 C 248.72 253.60 249.22 254.29 249.69 255.01 C 247.57 255.43 245.42 255.66 243.29 255.95 C 243.85 257.44 244.43 258.94 245.02 260.42 C 240.88 259.55 236.65 259.21 232.43 259.55 C 238.04 260.61 243.51 263.34 247.77 267.24 C 247.58 263.98 247.41 260.71 247.17 257.46 C 250.25 257.69 253.33 257.89 256.41 258.07 C 256.64 259.26 256.82 260.46 257.01 261.66 C 254.75 261.18 252.49 260.69 250.23 260.21 C 249.84 263.77 249.46 267.34 249.09 270.91 C 243.16 265.25 235.69 261.73 227.53 260.84 C 232.27 258.03 237.67 256.83 242.79 254.92 C 244.58 254.22 246.36 253.50 248.19 252.93 Z" />
</g>
<g id="#ff8a09ff">
<path fill="#ff8a09" opacity="1.00" d=" M 365.70 291.21 C 380.84 280.09 398.93 271.07 408.09 253.78 C 404.08 274.65 396.42 294.80 385.99 313.29 C 380.35 304.90 372.04 298.97 365.70 291.21 Z" />
</g>
<g id="#d1731cff">
<path fill="#d1731c" opacity="1.00" d=" M 264.11 259.99 C 267.68 261.73 271.34 263.29 275.07 264.65 C 274.97 265.17 274.78 266.21 274.69 266.74 C 271.79 265.37 268.87 264.06 265.94 262.77 C 265.55 268.43 264.85 274.06 264.20 279.70 C 262.96 278.75 261.73 277.81 260.49 276.87 C 260.47 275.83 260.43 274.80 260.40 273.77 C 261.29 273.60 262.18 273.44 263.08 273.28 C 263.48 268.85 263.84 264.42 264.11 259.99 Z" />
</g>
<g id="#d87416ff">
<path fill="#d87416" opacity="1.00" d=" M 249.84 298.48 C 252.67 297.56 255.43 296.45 258.16 295.26 C 251.32 313.68 247.23 337.37 262.02 353.14 C 259.53 356.27 257.03 359.43 253.98 362.04 C 250.45 355.38 247.98 348.14 247.12 340.64 C 247.00 334.49 247.89 328.35 247.43 322.20 C 246.99 314.57 245.04 306.66 247.69 299.20 C 248.23 299.02 249.30 298.66 249.84 298.48 Z" />
<path fill="#d87416" opacity="1.00" d=" M 319.96 348.93 C 327.40 344.90 334.52 339.38 343.23 338.62 C 342.77 340.02 342.33 341.43 341.89 342.84 C 349.09 343.19 356.36 343.68 363.25 345.97 C 360.42 349.27 357.52 352.51 354.49 355.63 C 351.92 353.59 348.89 351.73 345.47 352.46 C 332.86 353.95 321.13 359.18 309.07 362.85 C 295.20 366.54 281.22 372.45 266.59 370.75 C 269.15 368.11 271.52 365.30 273.91 362.52 C 278.91 363.97 284.30 364.96 289.38 363.28 C 300.15 359.85 310.28 354.70 319.96 348.93 Z" />
</g>
<g id="#ff8b0cff">
<path fill="#ff8b0c" opacity="1.00" d=" M 32.72 297.45 C 39.76 299.89 45.12 305.39 51.97 308.26 C 49.53 312.04 46.96 315.73 44.05 319.17 C 39.77 312.20 35.92 304.98 32.72 297.45 Z" />
</g>
<g id="#f9be05ff">
<path fill="#f9be05" opacity="1.00" d=" M 269.85 339.01 C 267.73 333.24 270.75 324.61 277.94 325.20 C 283.92 325.26 285.37 332.47 283.66 337.08 C 283.62 336.62 283.54 335.71 283.51 335.25 C 282.79 332.67 282.59 329.30 280.00 327.84 C 277.26 326.20 274.37 328.44 271.92 329.55 C 270.53 332.48 270.18 335.80 273.16 337.88 C 272.06 338.26 270.95 338.63 269.85 339.01 Z" />
<path fill="#f9be05" opacity="1.00" d=" M 263.62 355.59 C 268.56 350.88 270.58 343.80 275.95 339.62 C 276.33 346.98 271.11 352.74 267.72 358.77 C 262.23 366.08 255.51 372.72 247.37 377.01 C 246.19 374.94 245.01 372.86 243.83 370.80 C 251.42 367.16 258.75 362.67 263.62 355.59 Z" />
<path fill="#f9be05" opacity="1.00" d=" M 165.02 360.92 C 161.93 356.06 157.77 351.37 157.48 345.34 C 163.92 354.53 171.44 363.14 181.95 367.79 C 181.14 370.18 180.34 372.58 179.54 374.98 C 173.41 371.81 168.76 366.60 165.02 360.92 Z" />
</g>
<g id="#f8eab8fc">
<path fill="#f8eab8" opacity="1.00" d=" M 271.92 329.55 C 274.37 328.44 277.26 326.20 280.00 327.84 C 282.59 329.30 282.79 332.67 283.51 335.25 C 281.13 335.94 278.75 336.75 276.28 337.00 C 273.84 335.28 273.22 332.07 271.92 329.55 M 276.56 330.68 C 276.60 332.41 275.88 334.03 275.94 335.76 C 277.97 336.44 278.77 334.26 279.91 333.08 C 278.79 332.28 277.67 331.48 276.56 330.68 Z" />
</g>
<g id="#fcd44dff">
<path fill="#fcd44d" opacity="1.00" d=" M 150.37 330.66 C 153.97 329.04 158.34 327.50 162.23 328.69 C 167.20 331.71 165.37 338.16 163.35 342.45 C 159.05 339.92 155.07 342.21 152.63 346.02 C 146.48 343.34 145.64 335.06 150.37 330.66 M 153.45 332.54 C 149.38 333.01 147.36 339.75 151.46 341.58 C 155.85 341.34 161.71 340.43 163.73 335.98 C 162.82 331.31 157.00 331.75 153.45 332.54 Z" />
</g>
<g id="#fcda66ff">
<path fill="#fcda66" opacity="1.00" d=" M 273.16 337.88 C 270.18 335.80 270.53 332.48 271.92 329.55 C 273.22 332.07 273.84 335.28 276.28 337.00 C 278.75 336.75 281.13 335.94 283.51 335.25 C 283.54 335.71 283.62 336.62 283.66 337.08 C 282.46 338.35 281.18 339.55 279.93 340.77 C 277.66 339.84 275.35 338.98 273.16 337.88 Z" />
</g>
<g id="#91919092">
<path fill="#919190" opacity="0.57" d=" M 276.56 330.68 C 277.67 331.48 278.79 332.28 279.91 333.08 C 278.77 334.26 277.97 336.44 275.94 335.76 C 275.88 334.03 276.60 332.41 276.56 330.68 Z" />
</g>
<g id="#fce8a9ff">
<path fill="#fce8a9" opacity="1.00" d=" M 153.45 332.54 C 157.00 331.75 162.82 331.31 163.73 335.98 C 161.71 340.43 155.85 341.34 151.46 341.58 C 147.36 339.75 149.38 333.01 153.45 332.54 Z" />
</g>
<g id="#dc7e1fff">
<path fill="#dc7e1f" opacity="1.00" d=" M 238.04 333.13 C 239.10 332.59 240.17 332.08 241.25 331.58 C 241.83 335.27 240.91 338.84 239.00 342.00 C 239.63 340.02 240.21 338.03 240.80 336.05 C 239.76 336.25 238.72 336.45 237.69 336.66 C 237.82 335.48 237.94 334.30 238.04 333.13 Z" />
</g>
<g id="#eeac5dff">
<path fill="#eeac5d" opacity="1.00" d=" M 234.91 334.86 C 235.93 334.24 236.97 333.67 238.04 333.13 C 237.94 334.30 237.82 335.48 237.69 336.66 C 236.33 342.02 233.25 346.84 232.37 352.33 C 232.11 356.70 233.31 360.99 234.50 365.15 C 224.79 357.56 231.67 344.15 234.91 334.86 Z" />
</g>
<g id="#f8ce7aff">
<path fill="#f8ce7a" opacity="1.00" d=" M 232.47 336.45 C 233.28 335.91 234.09 335.38 234.91 334.86 C 231.67 344.15 224.79 357.56 234.50 365.15 C 235.30 366.85 236.20 368.50 237.08 370.16 C 235.11 370.87 233.16 371.64 231.20 372.36 C 225.05 361.15 227.07 347.51 232.47 336.45 Z" />
</g>
<g id="#310404ff">
<path fill="#310404" opacity="1.00" d=" M 350.11 337.96 C 356.46 336.87 363.26 334.84 369.14 338.70 C 367.24 341.17 365.27 343.60 363.25 345.97 C 356.36 343.68 349.09 343.19 341.89 342.84 C 342.33 341.43 342.77 340.02 343.23 338.62 C 345.52 338.38 347.82 338.22 350.11 337.96 Z" />
</g>
<g id="#f6bc52ff">
<path fill="#f6bc52" opacity="1.00" d=" M 226.66 338.76 C 228.61 338.02 230.58 337.32 232.47 336.45 C 227.07 347.51 225.05 361.15 231.20 372.36 C 224.14 373.88 216.87 373.14 209.79 372.28 C 214.29 370.81 220.54 368.53 220.15 362.71 C 219.71 354.12 224.76 346.85 226.66 338.76 Z" />
</g>
<g id="#f6bd53ff">
<path fill="#f6bd53" opacity="1.00" d=" M 241.90 343.10 C 243.64 342.28 245.38 341.45 247.12 340.64 C 247.98 348.14 250.45 355.38 253.98 362.04 C 251.16 364.23 247.98 365.88 244.77 367.39 C 244.45 363.75 244.27 360.10 244.31 356.45 C 243.54 355.54 242.78 354.63 242.02 353.73 C 242.41 352.47 242.84 351.22 243.14 349.94 C 243.69 347.57 242.76 345.27 241.90 343.10 Z" />
<path fill="#f6bd53" opacity="1.00" d=" M 266.59 370.75 C 281.22 372.45 295.20 366.54 309.07 362.85 C 307.99 366.75 306.25 370.43 303.91 373.73 C 310.43 376.27 318.53 374.46 323.25 380.78 C 317.82 383.83 312.63 387.26 307.32 390.49 C 306.65 390.22 305.33 389.67 304.66 389.40 C 300.19 386.64 295.07 385.65 289.86 385.96 C 292.06 387.46 294.22 389.01 296.40 390.55 C 285.98 393.38 275.57 388.00 265.08 390.20 C 257.32 391.86 249.31 392.03 241.75 389.34 C 251.26 384.97 259.12 377.92 266.59 370.75 Z" />
<path fill="#f6bd53" opacity="1.00" d=" M 155.24 373.25 C 157.90 372.82 160.44 371.93 162.98 371.09 C 175.13 385.77 194.31 391.36 212.39 394.37 C 202.39 399.32 190.81 398.74 180.06 400.98 C 170.47 396.68 161.98 389.56 151.22 387.99 C 142.97 386.63 134.30 387.32 126.52 383.71 C 132.64 374.12 145.25 374.44 155.24 373.25 Z" />
</g>
<g id="#c96f1eff">
<path fill="#c96f1e" opacity="1.00" d=" M 237.96 344.93 C 239.27 344.31 240.59 343.71 241.90 343.10 C 242.76 345.27 243.69 347.57 243.14 349.94 C 243.02 348.49 242.88 347.05 242.71 345.62 C 240.21 347.87 237.62 350.05 235.71 352.86 C 236.48 350.22 237.14 347.55 237.96 344.93 Z" />
</g>
<g id="#db7619ff">
<path fill="#db7619" opacity="1.00" d=" M 241.67 368.89 C 242.24 363.84 240.08 358.62 242.02 353.73 C 242.78 354.63 243.54 355.54 244.31 356.45 C 244.27 360.10 244.45 363.75 244.77 367.39 C 243.73 367.88 242.70 368.38 241.67 368.89 Z" />
</g>
<g id="#facd41ff">
<path fill="#facd41" opacity="1.00" d=" M 181.95 367.79 C 201.49 374.78 224.03 379.56 243.83 370.80 C 245.01 372.86 246.19 374.94 247.37 377.01 C 244.86 378.58 242.30 380.10 239.62 381.36 C 239.36 379.28 239.11 377.20 238.85 375.12 C 228.94 376.49 218.82 377.98 208.88 376.05 C 201.45 375.10 194.02 371.46 186.50 373.88 C 187.82 375.93 188.89 378.58 191.46 379.32 C 204.21 383.57 217.73 386.02 231.15 383.89 C 213.78 388.47 194.66 384.22 179.54 374.98 C 180.34 372.58 181.14 370.18 181.95 367.79 Z" />
</g>
<g id="#fbe397ff">
<path fill="#fbe397" opacity="1.00" d=" M 186.50 373.88 C 194.02 371.46 201.45 375.10 208.88 376.05 C 218.82 377.98 228.94 376.49 238.85 375.12 C 239.11 377.20 239.36 379.28 239.62 381.36 C 236.84 382.32 234.09 383.52 231.15 383.89 C 217.73 386.02 204.21 383.57 191.46 379.32 C 188.89 378.58 187.82 375.93 186.50 373.88 Z" />
</g>
<g id="#ff9825ff">
<path fill="#ff9825" opacity="1.00" d=" M 102.55 380.26 C 110.72 379.21 118.91 380.77 126.52 383.71 C 134.30 387.32 142.97 386.63 151.22 387.99 C 161.98 389.56 170.47 396.68 180.06 400.98 C 184.22 402.22 188.40 403.49 192.69 404.20 C 197.42 404.99 201.04 400.97 205.43 400.00 C 214.14 398.35 222.44 402.62 230.96 403.42 C 239.78 401.43 246.96 393.32 256.58 394.40 C 263.17 394.98 269.36 402.00 276.00 398.04 C 282.17 394.53 290.00 390.48 296.43 395.86 C 280.96 403.28 264.41 408.33 247.57 411.53 C 197.64 421.19 144.43 408.64 102.55 380.26 Z" />
</g>
<g id="#f8cd79ff">
<path fill="#f8cd79" opacity="1.00" d=" M 289.86 385.96 C 295.07 385.65 300.19 386.64 304.66 389.40 C 301.89 389.64 299.14 390.08 296.40 390.55 C 294.22 389.01 292.06 387.46 289.86 385.96 Z" />
</g>
<g id="#fd9f32ff">
<path fill="#fd9f32" opacity="1.00" d=" M 212.39 394.37 C 221.80 390.94 231.82 389.97 241.75 389.34 C 249.31 392.03 257.32 391.86 265.08 390.20 C 275.57 388.00 285.98 393.38 296.40 390.55 C 299.14 390.08 301.89 389.64 304.66 389.40 C 305.33 389.67 306.65 390.22 307.32 390.49 C 303.79 392.47 300.09 394.13 296.43 395.86 C 290.00 390.48 282.17 394.53 276.00 398.04 C 269.36 402.00 263.17 394.98 256.58 394.40 C 246.96 393.32 239.78 401.43 230.96 403.42 C 222.44 402.62 214.14 398.35 205.43 400.00 C 201.04 400.97 197.42 404.99 192.69 404.20 C 188.40 403.49 184.22 402.22 180.06 400.98 C 190.81 398.74 202.39 399.32 212.39 394.37 Z" />
</g>
</svg>
